<svg xmlns="http://www.w3.org/2000/svg" xmlns:xlink="http://www.w3.org/1999/xlink" width="1920" height="923" viewBox="0 0 1920 923">
  <defs>
    <clipPath id="clip-path">
      <rect id="Rectangle_9" data-name="Rectangle 9" width="164.029" height="156.088" fill="none"/>
    </clipPath>
    <clipPath id="clip-path-2">
      <rect id="Rectangle_10" data-name="Rectangle 10" width="97" height="73.456" transform="translate(0 0)" fill="none"/>
    </clipPath>
    <clipPath id="clip-path-3">
      <rect id="Rectangle_12" data-name="Rectangle 12" width="89" height="73.091" transform="translate(0 -0.001)" fill="none"/>
    </clipPath>
    <clipPath id="clip-path-4">
      <rect id="Rectangle_15" data-name="Rectangle 15" width="88.165" height="59" fill="none"/>
    </clipPath>
    <clipPath id="clip-path-5">
      <rect id="Rectangle_335" data-name="Rectangle 335" width="274.667" height="193.874" fill="none"/>
    </clipPath>
    <clipPath id="clip-path-7">
      <rect id="Rectangle_337" data-name="Rectangle 337" width="49.518" height="42.998" transform="translate(0 0)" fill="none"/>
    </clipPath>
    <clipPath id="clip-path-8">
      <rect id="Rectangle_318" data-name="Rectangle 318" width="112.687" height="208.058" fill="none"/>
    </clipPath>
    <clipPath id="clip-path-9">
      <rect id="Rectangle_377" data-name="Rectangle 377" width="509" height="584" transform="translate(0 -0.334)" fill="none"/>
    </clipPath>
    <clipPath id="clip-path-10">
      <rect id="Rectangle_29" data-name="Rectangle 29" width="223.412" height="200.85" fill="none"/>
    </clipPath>
    <clipPath id="clip-Web_1920_2">
      <rect width="1920" height="923"/>
    </clipPath>
  </defs>
  <g id="Web_1920_2" data-name="Web 1920 – 2" clip-path="url(#clip-Web_1920_2)">
    <rect width="1920" height="923" fill="#def8f9"/>
    <g id="Group_2" data-name="Group 2" transform="translate(30 21.956)">
      <g id="Group_1" data-name="Group 1" clip-path="url(#clip-path)">
        <path id="Path_1" data-name="Path 1" d="M164.867,77.71c0,42.918-35.656,77.71-79.641,77.71S5.585,120.629,5.585,77.71,41.242,0,85.226,0s79.641,34.792,79.641,77.71" transform="translate(-3.963 0)" fill="#9dcff6"/>
        <path id="Path_2" data-name="Path 2" d="M37.486,121.513c-14.7,34.353,30.606,66.7,68.361,66.7s87.161-37.021,68.361-66.7c-19.848-31.338-58.449-41.69-68.361-66.7-13.616-34.36-53.816,32.708-68.361,66.7" transform="translate(-24.584 -32.13)" fill="#fdced3"/>
        <path id="Path_3" data-name="Path 3" d="M207.793,254.817c0,25.972-21.578,47.026-48.195,47.026S123.155,278.12,111.4,254.817c-10.6-21.012,23.926-35.353,48.195-47.026,23.874-11.484,48.195,21.055,48.195,47.026" transform="translate(-77.652 -145.756)" fill="#fd4072"/>
        <path id="Path_4" data-name="Path 4" d="M2.617,158.008a65.5,65.5,0,0,0,30.718-11.99c4.5-3.3,8.982-7.14,11.855-12,1.491-2.522,3.163-6.219.82-8.783-2.427-2.657-6.161-1.076-8.678.536A27.1,27.1,0,0,0,27.4,138.222,29.147,29.147,0,0,0,25.4,156.207a22.035,22.035,0,0,0,8.795,13.086c4.745,3.273,10.865,4.2,16.515,3.926a42.692,42.692,0,0,0,16.574-4.264,40.775,40.775,0,0,0,7.179-4.507c2.266-1.756,4.346-4.042,4.626-7.025a5.373,5.373,0,0,0-1.457-4.1,2.546,2.546,0,0,0-2.543-.672c-5.034,1.872-7.7,6.76-8.947,11.731a32.7,32.7,0,0,0,.144,15.677c2.419,9.862,8.993,19.634,18.43,23.917,9.529,4.325,20.565,3.69,30.19,0,9.791-3.755,18.041-10.109,26.254-16.471a174.96,174.96,0,0,0,19.219-17.2q1.463-1.525,2.9-3.073a2.614,2.614,0,0,0-3.7-3.7,175.354,175.354,0,0,1-18.815,17.682q-1.127.9-2.265,1.786l-1.13.877c-.077.06-.391.3,0,0l-.269.207-.634.488c-1.8,1.388-3.6,2.783-5.433,4.139a90.052,90.052,0,0,1-12.608,8.005,46.264,46.264,0,0,1-13.542,4.611c-.256.043-.513.082-.769.121-.309.047,0,0,.052,0-.172.024-.344.044-.516.064q-.9.106-1.811.171-1.747.124-3.5.088c-1.162-.025-2.321-.109-3.476-.245a1.712,1.712,0,0,1-.324-.046c-.3-.047-.591-.094-.886-.148q-.881-.159-1.753-.368a29.391,29.391,0,0,1-3.292-.993c-.239-.088-.475-.18-.712-.273-.01,0-.4-.162-.158-.062.267.112-.216-.1-.271-.121q-.812-.364-1.6-.782a25.557,25.557,0,0,1-2.956-1.838c-.078-.056-.591-.437-.316-.226-.244-.187-.482-.384-.717-.582q-.707-.593-1.374-1.231a31.122,31.122,0,0,1-2.424-2.6c-.169-.2-.334-.408-.5-.615-.032-.04-.3-.391-.076-.1q-.119-.158-.236-.317-.548-.743-1.057-1.513-.985-1.487-1.831-3.062-.412-.767-.788-1.553-.174-.363-.34-.73c-.055-.122-.109-.245-.164-.367-.349-.784.083.215-.1-.24a35.411,35.411,0,0,1-2.059-6.916q-.074-.393-.138-.787c-.018-.114-.129-.9-.078-.49q-.116-.921-.177-1.848a29.668,29.668,0,0,1-.022-3.565c.031-.57.082-1.139.146-1.706a1.65,1.65,0,0,1,.049-.349c.057-.347.115-.693.184-1.038a25.553,25.553,0,0,1,.932-3.446c.095-.273.2-.543.3-.812.175-.462-.107.209.1-.242.232-.5.477-1,.753-1.475.256-.444.545-.863.837-1.284.169-.244-.021.031-.051.066.1-.118.2-.239.3-.356q.269-.3.561-.586c.194-.188.4-.362.6-.537-.331.28.078-.046.213-.134q.289-.189.595-.353c.136-.073.275-.141.415-.207-.1.045-.453.177.026,0l-2.543-.672c-.083-.094-.241-.186-.079-.105.129.064.137.481.088.142-.042-.292-.053-.021-.015.065-.006-.013-.159-.465-.041-.2.033.074-.032.538.013.159.041-.344-.007,0-.026.062-.031.1-.057.207-.09.31-.047.146-.274.5-.03.1-.12.2-.216.412-.337.609-.062.1-.128.2-.194.3-.037.055-.338.448-.151.217.171-.212-.085.093-.1.108-.08.089-.159.179-.241.267q-.321.345-.673.658c-.217.193-.443.376-.67.558-.075.06-.581.45-.306.242q-.739.56-1.505,1.082-1.534,1.046-3.164,1.941c-1.049.576-2.124,1.1-3.22,1.581-.407.179.3-.122-.11.048l-.37.15q-.433.173-.869.335-.873.326-1.761.611-1.713.549-3.471.942-.911.2-1.831.363-.394.068-.789.129l-.4.058c-.276.039.234-.023-.231.027a37.394,37.394,0,0,1-7.358.136c-.269-.024-.537-.053-.8-.083-.451-.05.342.053-.106-.012l-.4-.061q-.928-.15-1.843-.367-.844-.2-1.672-.465-.443-.142-.881-.3c-.125-.046-.248-.095-.372-.142q-.253-.1.01.012l-.243-.107a18.178,18.178,0,0,1-3.067-1.743c-.1-.071-.2-.143-.3-.215.344.254.011.008-.049-.042-.187-.156-.374-.312-.557-.473a17.634,17.634,0,0,1-1.3-1.279q-.246-.268-.482-.547c-.082-.1-.547-.692-.273-.326q-.509-.681-.96-1.4-.417-.672-.78-1.375-.2-.379-.375-.765c-.051-.111-.1-.222-.15-.333-.182-.407.212.56-.066-.162a22.105,22.105,0,0,1-.96-3.137c-.114-.512-.213-1.029-.284-1.549.05.365-.044-.473-.052-.575q-.043-.494-.064-.99a25,25,0,0,1,.153-3.961c0,.012.062-.448.027-.216s.038-.227.036-.215c.056-.327.112-.654.177-.98q.194-.979.456-1.942a26.906,26.906,0,0,1,2.689-6.594,27.848,27.848,0,0,1,1.859-2.9c.073-.1.443-.568.189-.252.18-.224.361-.445.548-.663q.558-.651,1.164-1.259.561-.562,1.164-1.079c.123-.106.249-.209.375-.312.014-.012.33-.26.119-.1s.11-.079.125-.09c.166-.118.331-.237.5-.351q.657-.447,1.353-.834.322-.179.653-.343c.146-.073.3-.148.445-.213-.255.11-.128.046.057-.009.119-.036.236-.074.357-.1.089-.023.567-.052.252-.056s.1.024.125.027a1.34,1.34,0,0,1-.346-.062.981.981,0,0,1-.537-.656c.019.048.123.394.038.05-.089-.361-.022.229-.018.283-.032-.424.013-.086-.055.177-.038.144-.086.284-.13.426-.008.027-.132.371-.035.116s-.059.131-.068.151c-.055.12-.111.24-.168.359q-.228.476-.483.939c-.275.5-.572.992-.886,1.47q-.255.387-.525.764c-.077.108-.156.215-.234.322-.064.088-.244.32-.075.1a31.8,31.8,0,0,1-2.488,2.791c-.875.882-1.789,1.725-2.727,2.54q-.644.56-1.3,1.1-.3.25-.613.5l-.309.245c-.659.523.186-.139-.2.155A62.061,62.061,0,0,1,19.2,148.166q-.362.161-.726.318c-.407.176.3-.125-.105.045l-.367.151q-.856.349-1.722.674-1.733.65-3.5,1.2a62.459,62.459,0,0,1-7.063,1.741q-.846.157-1.7.29c-.262.041-.524.079-.786.118-.536.078-.209.03-.093.014l-.526.066A2.682,2.682,0,0,0,0,155.394c.057,1.273,1.16,2.793,2.614,2.614" transform="translate(0 -87.851)" fill="#fff"/>
      </g>
    </g>
    <text id="Emily_Caroe" data-name="Emily Caroe" transform="translate(436 90)" fill="#fd4072" font-size="25" font-family="Fraunces-Regular, Fraunces"><tspan x="0" y="24">Emily Caroe</tspan></text>
    <g id="Group_4" data-name="Group 4" transform="translate(974 78)">
      <g id="Group_3" data-name="Group 3" clip-path="url(#clip-path-2)">
        <path id="Path_5" data-name="Path 5" d="M45.046,51.822A21.776,21.776,0,0,1,23.129,73.455a21.635,21.635,0,1,1,0-43.266A21.776,21.776,0,0,1,45.046,51.822" fill="#9dcff6"/>
        <path id="Path_6" data-name="Path 6" d="M51,54.713H39.1a4.161,4.161,0,0,1-4.149-4.149V49.69A4.161,4.161,0,0,1,39.1,45.541H51a4.161,4.161,0,0,1,4.149,4.149v.874A4.161,4.161,0,0,1,51,54.713" fill="#9dcff6"/>
        <path id="Path_7" data-name="Path 7" d="M40.736,51.822c0,10.076-7.853,18.244-17.54,18.244S5.656,61.9,5.656,51.822,13.509,33.578,23.2,33.578s17.54,8.168,17.54,18.244" fill="#fdced3"/>
        <path id="Path_8" data-name="Path 8" d="M8.033,48.153a21.951,21.951,0,0,0,.317,6.072,12.434,12.434,0,0,0,2.227,4.592c2.279,3.006,5.5,4.987,8.823,6.655,1.722.863,3.243-1.724,1.515-2.591-2.866-1.436-5.767-3.071-7.785-5.63a9.874,9.874,0,0,1-1.887-3.824,19.2,19.2,0,0,1-.21-5.274c.088-1.93-2.912-1.926-3,0" fill="#c5e3e5"/>
        <path id="Path_9" data-name="Path 9" d="M13.292,41.629c-.027,0-.053,0-.08-.006l.4.053a.611.611,0,0,1-.133-.037l.358.151a.751.751,0,0,1-.152-.09l.3.234a.757.757,0,0,1-.125-.128l.234.3a.861.861,0,0,1-.089-.156c.05.12.1.239.151.358a.774.774,0,0,1-.047-.171l.054.4a.7.7,0,0,1,0-.158c-.018.133-.035.266-.053.4a.616.616,0,0,1,.044-.152c-.051.119-.1.238-.152.358a.767.767,0,0,1,.081-.135l-.234.3a.79.79,0,0,1,.126-.126l-.3.235a.837.837,0,0,1,.173-.1l-.358.151a.833.833,0,0,1,.213-.059l-.4.053a.842.842,0,0,1,.181,0l-.4-.054a.771.771,0,0,1,.177.047l-.358-.152a.863.863,0,0,1,.161.093l-.3-.235a.932.932,0,0,1,.16.16l-.235-.3a.939.939,0,0,1,.1.179c-.05-.12-.1-.239-.151-.358a.918.918,0,0,1,.061.218c-.018-.133-.036-.265-.053-.4a.887.887,0,0,1,0,.206l.054-.4a.889.889,0,0,1-.051.19l.151-.358a.689.689,0,0,1-.078.134l.234-.3a.659.659,0,0,1-.092.091l.3-.235a.658.658,0,0,1-.131.076l.358-.151a.763.763,0,0,1-.17.046l.4-.053a.836.836,0,0,1-.2,0l.4.054a.944.944,0,0,1-.2-.055l.359.151a1.105,1.105,0,0,1-.228-.133l.3.234a1.428,1.428,0,0,1-.239-.24c.079.1.157.2.235.3a1.033,1.033,0,0,1-.128-.211l.151.358a.74.74,0,0,1-.041-.139l.054.4a.509.509,0,0,1,0-.117c-.018.133-.036.266-.053.4a.4.4,0,0,1,.026-.09,1.128,1.128,0,0,0,.027-.6,1.111,1.111,0,0,0-.178-.558,1.134,1.134,0,0,0-.386-.421,1.132,1.132,0,0,0-.51-.268l-.4-.054a1.491,1.491,0,0,0-.757.205l-.3.234a1.511,1.511,0,0,0-.386.662,1.8,1.8,0,0,0,0,1.1,2.791,2.791,0,0,0,.213.493,3.451,3.451,0,0,0,.333.444,2.8,2.8,0,0,0,.537.463,2.177,2.177,0,0,0,.655.306,2.9,2.9,0,0,0,.532.081.777.777,0,0,0,.167,0,2.275,2.275,0,0,0,1.027-.293,2.03,2.03,0,0,0,.2-.154,2.123,2.123,0,0,0,.2-.159,1.941,1.941,0,0,0,.161-.2,1.712,1.712,0,0,0,.173-.239,2.355,2.355,0,0,0,.207-.5.773.773,0,0,0,.016-.081c.024-.151.051-.308.06-.461a.878.878,0,0,0-.006-.154,3.061,3.061,0,0,0-.083-.53,2.172,2.172,0,0,0-.275-.609,3.2,3.2,0,0,0-.321-.406,2.9,2.9,0,0,0-.406-.321.965.965,0,0,0-.125-.072c-.135-.062-.276-.126-.416-.174a.711.711,0,0,0-.079-.022c-.084-.018-.177-.025-.259-.036s-.173-.029-.259-.032a2.778,2.778,0,0,0-.53.061.82.82,0,0,0-.146.036c-.08.028-.16.066-.236.1s-.165.064-.243.106a2.024,2.024,0,0,0-.26.188,1.779,1.779,0,0,0-.26.22c-.093.107-.184.228-.265.343-.013.019-.026.037-.038.057s-.021.041-.031.062a3.406,3.406,0,0,0-.172.414.512.512,0,0,0-.02.077,3.315,3.315,0,0,0-.061.467.519.519,0,0,0,0,.079,3.689,3.689,0,0,0,.063.467,2.256,2.256,0,0,0,.192.491.826.826,0,0,0,.083.148c.084.119.176.239.272.35a.753.753,0,0,0,.056.057,3.846,3.846,0,0,0,.357.279.582.582,0,0,0,.066.044.762.762,0,0,0,.07.035,3.641,3.641,0,0,0,.414.171,1.9,1.9,0,0,0,.277.044,2.561,2.561,0,0,0,.279.033,1.126,1.126,0,0,0,.578-.129,1.346,1.346,0,0,0,.793-.793,1.126,1.126,0,0,0,.129-.578l-.054-.4a1.5,1.5,0,0,0-.385-.662l-.3-.234a1.491,1.491,0,0,0-.757-.2" fill="#c5e3e5"/>
        <path id="Path_10" data-name="Path 10" d="M5.476,38.459l1.678,1.11a2.45,2.45,0,0,0,3.363-.654L33.562,4.991A2.379,2.379,0,0,0,32.9,1.672L31.221.561a2.452,2.452,0,0,0-3.364.655L4.813,35.139a2.381,2.381,0,0,0,.663,3.32" fill="#9dcff6"/>
        <path id="Path_11" data-name="Path 11" d="M2.626,50.925,8.08,40.756A2.415,2.415,0,0,0,10.5,38.364V35.173A2.415,2.415,0,0,0,8.08,32.781H2.424A2.415,2.415,0,0,0,0,35.173V38.2c0,1.406,1.2,12.724,2.626,12.724" fill="#9dcff6"/>
        <path id="Path_12" data-name="Path 12" d="M51.954,51.664A21.919,21.919,0,1,0,73.871,30.031,21.776,21.776,0,0,0,51.954,51.664" fill="#9dcff6"/>
        <path id="Path_13" data-name="Path 13" d="M44.791,54.555h11.9a4.161,4.161,0,0,0,4.149-4.149v-.874a4.161,4.161,0,0,0-4.149-4.149h-11.9a4.161,4.161,0,0,0-4.149,4.149v.874a4.161,4.161,0,0,0,4.149,4.149" fill="#9dcff6"/>
        <path id="Path_14" data-name="Path 14" d="M56.264,51.664c0,10.076,7.853,18.244,17.54,18.244s17.54-8.168,17.54-18.244S83.491,33.42,73.8,33.42s-17.54,8.168-17.54,18.244" fill="#fdced3"/>
        <path id="Path_15" data-name="Path 15" d="M85.967,47.995a19.6,19.6,0,0,1-.178,5.128,9.882,9.882,0,0,1-1.919,3.97c-2.018,2.559-4.919,4.194-7.785,5.63-1.726.866-.208,3.454,1.515,2.591,3.327-1.668,6.545-3.648,8.823-6.655a12.449,12.449,0,0,0,2.227-4.592,21.873,21.873,0,0,0,.317-6.072c-.088-1.923-3.088-1.933-3,0" fill="#c5e3e5"/>
        <path id="Path_16" data-name="Path 16" d="M83.708,44.471a2.2,2.2,0,0,0,1.006-.265.711.711,0,0,0,.116-.074,2.29,2.29,0,0,0,.4-.332,3.138,3.138,0,0,0,.305-.4,2.777,2.777,0,0,0,.207-.475,1.714,1.714,0,0,0,.092-.67,2.316,2.316,0,0,0-.077-.516.569.569,0,0,0-.024-.065,3.558,3.558,0,0,0-.177-.411.748.748,0,0,0-.043-.066c-.079-.112-.17-.231-.259-.335a.742.742,0,0,0-.114-.11,2.77,2.77,0,0,0-.4-.3,3.039,3.039,0,0,0-.487-.209.8.8,0,0,0-.136-.034c-.145-.025-.3-.049-.449-.06l-.081,0a2.287,2.287,0,0,0-1.013.26.822.822,0,0,0-.127.07,3.038,3.038,0,0,0-.406.32,2,2,0,0,0-.4.538,3.646,3.646,0,0,0-.2.474,3.069,3.069,0,0,0-.086.54.864.864,0,0,0-.006.144c0,.086.021.179.032.261s.02.188.041.278a.628.628,0,0,0,.027.087,3.385,3.385,0,0,0,.183.43.618.618,0,0,0,.048.077,3.17,3.17,0,0,0,.278.355c.018.018.038.034.057.05a3.325,3.325,0,0,0,.348.265.629.629,0,0,0,.067.037,3.676,3.676,0,0,0,.43.179,2.758,2.758,0,0,0,.528.082.847.847,0,0,0,.167,0,4.593,4.593,0,0,0,.465-.063.714.714,0,0,0,.1-.026c.144-.049.286-.115.425-.177.033-.015.066-.031.1-.049a3.247,3.247,0,0,0,.443-.33,1.323,1.323,0,0,0,.149-.141,4.641,4.641,0,0,0,.341-.436,2.488,2.488,0,0,0,.243-.52.78.78,0,0,0,.031-.093c0-.015.006-.031.009-.047a4,4,0,0,0,.057-.422A1.439,1.439,0,0,0,85.885,42a1.622,1.622,0,0,0-.743-1.186,1.111,1.111,0,0,0-.557-.178,1.131,1.131,0,0,0-.6.027l-.358.151a1.508,1.508,0,0,0-.538.538l-.151.358a1.5,1.5,0,0,0,0,.8.4.4,0,0,1,.026.09l-.053-.4a.509.509,0,0,1,0,.117l.054-.4a.74.74,0,0,1-.041.139l.151-.358a1.033,1.033,0,0,1-.128.211c.078-.1.156-.2.235-.3a1.428,1.428,0,0,1-.239.24l.3-.234a1.105,1.105,0,0,1-.228.133l.359-.151a.944.944,0,0,1-.2.055l.4-.054a.836.836,0,0,1-.2,0l.4.053a.763.763,0,0,1-.17-.046l.358.151a.658.658,0,0,1-.131-.076l.3.235a.659.659,0,0,1-.092-.091l.234.3a.69.69,0,0,1-.078-.134l.151.358a.889.889,0,0,1-.051-.19l.054.4a.887.887,0,0,1,0-.206c-.017.133-.035.265-.053.4a.918.918,0,0,1,.061-.218c-.05.119-.1.238-.151.358a.939.939,0,0,1,.1-.179l-.235.3a.932.932,0,0,1,.16-.16l-.3.235a.863.863,0,0,1,.161-.093l-.358.152a.771.771,0,0,1,.177-.047l-.4.054a.783.783,0,0,1,.181,0l-.4-.053a.832.832,0,0,1,.213.059l-.358-.151a.837.837,0,0,1,.173.1l-.3-.235a.79.79,0,0,1,.126.126l-.234-.3a.767.767,0,0,1,.081.135c-.051-.12-.1-.239-.152-.358a.617.617,0,0,1,.044.152c-.018-.133-.035-.266-.053-.4a.7.7,0,0,1,0,.158l.054-.4a.774.774,0,0,1-.047.171c.05-.119.1-.238.151-.358a.819.819,0,0,1-.089.155l.234-.3a.757.757,0,0,1-.125.128l.3-.234a.751.751,0,0,1-.152.09l.358-.151a.611.611,0,0,1-.133.037l.4-.053c-.027,0-.053.005-.08.006a1.541,1.541,0,0,0-1.5,1.5l.054.4a1.5,1.5,0,0,0,.385.662,1.534,1.534,0,0,0,1.061.439" fill="#c5e3e5"/>
        <path id="Path_17" data-name="Path 17" d="M91.524,38.3l-1.678,1.11a2.45,2.45,0,0,1-3.363-.654L63.438,4.833A2.379,2.379,0,0,1,64.1,1.514L65.779.4a2.452,2.452,0,0,1,3.364.655L92.187,34.981a2.381,2.381,0,0,1-.663,3.32" fill="#9dcff6"/>
        <path id="Path_18" data-name="Path 18" d="M94.374,50.767,88.92,40.6A2.415,2.415,0,0,1,86.5,38.206V35.015a2.415,2.415,0,0,1,2.424-2.392h5.656A2.415,2.415,0,0,1,97,35.015v3.028c0,1.406-1.2,12.724-2.626,12.724" fill="#9dcff6"/>
        <path id="Path_19" data-name="Path 19" d="M45.046,51.822A21.776,21.776,0,0,1,23.129,73.455a21.635,21.635,0,1,1,0-43.266A21.776,21.776,0,0,1,45.046,51.822" fill="#9dcff6"/>
        <path id="Path_20" data-name="Path 20" d="M51,54.713H39.1a4.161,4.161,0,0,1-4.149-4.149V49.69A4.161,4.161,0,0,1,39.1,45.541H51a4.161,4.161,0,0,1,4.149,4.149v.874A4.161,4.161,0,0,1,51,54.713" fill="#9dcff6"/>
        <path id="Path_21" data-name="Path 21" d="M40.736,51.822c0,10.076-7.853,18.244-17.54,18.244S5.656,61.9,5.656,51.822,13.509,33.578,23.2,33.578s17.54,8.168,17.54,18.244" fill="#fdced3"/>
        <path id="Path_22" data-name="Path 22" d="M8.033,48.153a21.951,21.951,0,0,0,.317,6.072,12.434,12.434,0,0,0,2.227,4.592c2.279,3.006,5.5,4.987,8.823,6.655,1.722.863,3.243-1.724,1.515-2.591-2.866-1.436-5.767-3.071-7.785-5.63a9.874,9.874,0,0,1-1.887-3.824,19.2,19.2,0,0,1-.21-5.274c.088-1.93-2.912-1.926-3,0" fill="#c5e3e5"/>
        <path id="Path_23" data-name="Path 23" d="M13.292,41.629c-.027,0-.053,0-.08-.006l.4.053a.611.611,0,0,1-.133-.037l.358.151a.751.751,0,0,1-.152-.09l.3.234a.757.757,0,0,1-.125-.128l.234.3a.861.861,0,0,1-.089-.156c.05.12.1.239.151.358a.774.774,0,0,1-.047-.171l.054.4a.7.7,0,0,1,0-.158c-.018.133-.035.266-.053.4a.616.616,0,0,1,.044-.152c-.051.119-.1.238-.152.358a.767.767,0,0,1,.081-.135l-.234.3a.79.79,0,0,1,.126-.126l-.3.235a.837.837,0,0,1,.173-.1l-.358.151a.833.833,0,0,1,.213-.059l-.4.053a.842.842,0,0,1,.181,0l-.4-.054a.771.771,0,0,1,.177.047l-.358-.152a.863.863,0,0,1,.161.093l-.3-.235a.932.932,0,0,1,.16.16l-.235-.3a.939.939,0,0,1,.1.179c-.05-.12-.1-.239-.151-.358a.918.918,0,0,1,.061.218c-.018-.133-.036-.265-.053-.4a.887.887,0,0,1,0,.206l.054-.4a.889.889,0,0,1-.051.19l.151-.358a.689.689,0,0,1-.078.134l.234-.3a.659.659,0,0,1-.092.091l.3-.235a.658.658,0,0,1-.131.076l.358-.151a.763.763,0,0,1-.17.046l.4-.053a.836.836,0,0,1-.2,0l.4.054a.944.944,0,0,1-.2-.055l.359.151a1.105,1.105,0,0,1-.228-.133l.3.234a1.428,1.428,0,0,1-.239-.24c.079.1.157.2.235.3a1.033,1.033,0,0,1-.128-.211l.151.358a.74.74,0,0,1-.041-.139l.054.4a.509.509,0,0,1,0-.117c-.018.133-.036.266-.053.4a.4.4,0,0,1,.026-.09,1.128,1.128,0,0,0,.027-.6,1.111,1.111,0,0,0-.178-.558,1.134,1.134,0,0,0-.386-.421,1.132,1.132,0,0,0-.51-.268l-.4-.054a1.491,1.491,0,0,0-.757.205l-.3.234a1.511,1.511,0,0,0-.386.662,1.8,1.8,0,0,0,0,1.1,2.791,2.791,0,0,0,.213.493,3.451,3.451,0,0,0,.333.444,2.8,2.8,0,0,0,.537.463,2.177,2.177,0,0,0,.655.306,2.9,2.9,0,0,0,.532.081.777.777,0,0,0,.167,0,2.275,2.275,0,0,0,1.027-.293,2.03,2.03,0,0,0,.2-.154,2.123,2.123,0,0,0,.2-.159,1.941,1.941,0,0,0,.161-.2,1.712,1.712,0,0,0,.173-.239,2.355,2.355,0,0,0,.207-.5.773.773,0,0,0,.016-.081c.024-.151.051-.308.06-.461a.878.878,0,0,0-.006-.154,3.061,3.061,0,0,0-.083-.53,2.172,2.172,0,0,0-.275-.609,3.2,3.2,0,0,0-.321-.406,2.9,2.9,0,0,0-.406-.321.965.965,0,0,0-.125-.072c-.135-.062-.276-.126-.416-.174a.711.711,0,0,0-.079-.022c-.084-.018-.177-.025-.259-.036s-.173-.029-.259-.032a2.778,2.778,0,0,0-.53.061.82.82,0,0,0-.146.036c-.08.028-.16.066-.236.1s-.165.064-.243.106a2.024,2.024,0,0,0-.26.188,1.779,1.779,0,0,0-.26.22c-.093.107-.184.228-.265.343-.013.019-.026.037-.038.057s-.021.041-.031.062a3.406,3.406,0,0,0-.172.414.512.512,0,0,0-.02.077,3.315,3.315,0,0,0-.061.467.519.519,0,0,0,0,.079,3.689,3.689,0,0,0,.063.467,2.256,2.256,0,0,0,.192.491.826.826,0,0,0,.083.148c.084.119.176.239.272.35a.753.753,0,0,0,.056.057,3.846,3.846,0,0,0,.357.279.582.582,0,0,0,.066.044.762.762,0,0,0,.07.035,3.641,3.641,0,0,0,.414.171,1.9,1.9,0,0,0,.277.044,2.561,2.561,0,0,0,.279.033,1.126,1.126,0,0,0,.578-.129,1.346,1.346,0,0,0,.793-.793,1.126,1.126,0,0,0,.129-.578l-.054-.4a1.5,1.5,0,0,0-.385-.662l-.3-.234a1.491,1.491,0,0,0-.757-.2" fill="#c5e3e5"/>
        <path id="Path_24" data-name="Path 24" d="M5.476,38.459l1.678,1.11a2.45,2.45,0,0,0,3.363-.654L33.562,4.991A2.379,2.379,0,0,0,32.9,1.672L31.221.561a2.452,2.452,0,0,0-3.364.655L4.813,35.139a2.381,2.381,0,0,0,.663,3.32" fill="#9dcff6"/>
        <path id="Path_25" data-name="Path 25" d="M2.626,50.925,8.08,40.756A2.415,2.415,0,0,0,10.5,38.364V35.173A2.415,2.415,0,0,0,8.08,32.781H2.424A2.415,2.415,0,0,0,0,35.173V38.2c0,1.406,1.2,12.724,2.626,12.724" fill="#9dcff6"/>
        <path id="Path_26" data-name="Path 26" d="M51.954,51.664A21.919,21.919,0,1,0,73.871,30.031,21.776,21.776,0,0,0,51.954,51.664" fill="#9dcff6"/>
        <path id="Path_27" data-name="Path 27" d="M44.791,54.555h11.9a4.161,4.161,0,0,0,4.149-4.149v-.874a4.161,4.161,0,0,0-4.149-4.149h-11.9a4.161,4.161,0,0,0-4.149,4.149v.874a4.161,4.161,0,0,0,4.149,4.149" fill="#9dcff6"/>
        <path id="Path_28" data-name="Path 28" d="M56.264,51.664c0,10.076,7.853,18.244,17.54,18.244s17.54-8.168,17.54-18.244S83.491,33.42,73.8,33.42s-17.54,8.168-17.54,18.244" fill="#fdced3"/>
        <path id="Path_29" data-name="Path 29" d="M85.967,47.995a19.6,19.6,0,0,1-.178,5.128,9.882,9.882,0,0,1-1.919,3.97c-2.018,2.559-4.919,4.194-7.785,5.63-1.726.866-.208,3.454,1.515,2.591,3.327-1.668,6.545-3.648,8.823-6.655a12.449,12.449,0,0,0,2.227-4.592,21.873,21.873,0,0,0,.317-6.072c-.088-1.923-3.088-1.933-3,0" fill="#c5e3e5"/>
        <path id="Path_30" data-name="Path 30" d="M83.708,44.471a2.2,2.2,0,0,0,1.006-.265.711.711,0,0,0,.116-.074,2.29,2.29,0,0,0,.4-.332,3.138,3.138,0,0,0,.305-.4,2.777,2.777,0,0,0,.207-.475,1.714,1.714,0,0,0,.092-.67,2.316,2.316,0,0,0-.077-.516.569.569,0,0,0-.024-.065,3.558,3.558,0,0,0-.177-.411.748.748,0,0,0-.043-.066c-.079-.112-.17-.231-.259-.335a.742.742,0,0,0-.114-.11,2.77,2.77,0,0,0-.4-.3,3.039,3.039,0,0,0-.487-.209.8.8,0,0,0-.136-.034c-.145-.025-.3-.049-.449-.06l-.081,0a2.287,2.287,0,0,0-1.013.26.822.822,0,0,0-.127.07,3.038,3.038,0,0,0-.406.32,2,2,0,0,0-.4.538,3.646,3.646,0,0,0-.2.474,3.069,3.069,0,0,0-.086.54.864.864,0,0,0-.006.144c0,.086.021.179.032.261s.02.188.041.278a.628.628,0,0,0,.027.087,3.385,3.385,0,0,0,.183.43.618.618,0,0,0,.048.077,3.17,3.17,0,0,0,.278.355c.018.018.038.034.057.05a3.325,3.325,0,0,0,.348.265.629.629,0,0,0,.067.037,3.676,3.676,0,0,0,.43.179,2.758,2.758,0,0,0,.528.082.847.847,0,0,0,.167,0,4.593,4.593,0,0,0,.465-.063.714.714,0,0,0,.1-.026c.144-.049.286-.115.425-.177.033-.015.066-.031.1-.049a3.247,3.247,0,0,0,.443-.33,1.323,1.323,0,0,0,.149-.141,4.641,4.641,0,0,0,.341-.436,2.488,2.488,0,0,0,.243-.52.78.78,0,0,0,.031-.093c0-.015.006-.031.009-.047a4,4,0,0,0,.057-.422A1.439,1.439,0,0,0,85.885,42a1.622,1.622,0,0,0-.743-1.186,1.111,1.111,0,0,0-.557-.178,1.131,1.131,0,0,0-.6.027l-.358.151a1.508,1.508,0,0,0-.538.538l-.151.358a1.5,1.5,0,0,0,0,.8.4.4,0,0,1,.026.09l-.053-.4a.509.509,0,0,1,0,.117l.054-.4a.74.74,0,0,1-.041.139l.151-.358a1.033,1.033,0,0,1-.128.211c.078-.1.156-.2.235-.3a1.428,1.428,0,0,1-.239.24l.3-.234a1.105,1.105,0,0,1-.228.133l.359-.151a.944.944,0,0,1-.2.055l.4-.054a.836.836,0,0,1-.2,0l.4.053a.763.763,0,0,1-.17-.046l.358.151a.658.658,0,0,1-.131-.076l.3.235a.659.659,0,0,1-.092-.091l.234.3a.69.69,0,0,1-.078-.134l.151.358a.889.889,0,0,1-.051-.19l.054.4a.887.887,0,0,1,0-.206c-.017.133-.035.265-.053.4a.918.918,0,0,1,.061-.218c-.05.119-.1.238-.151.358a.939.939,0,0,1,.1-.179l-.235.3a.932.932,0,0,1,.16-.16l-.3.235a.863.863,0,0,1,.161-.093l-.358.152a.771.771,0,0,1,.177-.047l-.4.054a.783.783,0,0,1,.181,0l-.4-.053a.832.832,0,0,1,.213.059l-.358-.151a.837.837,0,0,1,.173.1l-.3-.235a.79.79,0,0,1,.126.126l-.234-.3a.767.767,0,0,1,.081.135c-.051-.12-.1-.239-.152-.358a.617.617,0,0,1,.044.152c-.018-.133-.035-.266-.053-.4a.7.7,0,0,1,0,.158l.054-.4a.774.774,0,0,1-.047.171c.05-.119.1-.238.151-.358a.819.819,0,0,1-.089.155l.234-.3a.757.757,0,0,1-.125.128l.3-.234a.751.751,0,0,1-.152.09l.358-.151a.611.611,0,0,1-.133.037l.4-.053c-.027,0-.053.005-.08.006a1.541,1.541,0,0,0-1.5,1.5l.054.4a1.5,1.5,0,0,0,.385.662,1.534,1.534,0,0,0,1.061.439" fill="#c5e3e5"/>
        <path id="Path_31" data-name="Path 31" d="M91.524,38.3l-1.678,1.11a2.45,2.45,0,0,1-3.363-.654L63.438,4.833A2.379,2.379,0,0,1,64.1,1.514L65.779.4a2.452,2.452,0,0,1,3.364.655L92.187,34.981a2.381,2.381,0,0,1-.663,3.32" fill="#9dcff6"/>
        <path id="Path_32" data-name="Path 32" d="M94.374,50.767,88.92,40.6A2.415,2.415,0,0,1,86.5,38.206V35.015a2.415,2.415,0,0,1,2.424-2.392h5.656A2.415,2.415,0,0,1,97,35.015v3.028c0,1.406-1.2,12.724-2.626,12.724" fill="#9dcff6"/>
      </g>
    </g>
    <g id="Group_6" data-name="Group 6" transform="translate(1398 83)">
      <g id="Group_5" data-name="Group 5" clip-path="url(#clip-path-3)">
        <path id="Path_33" data-name="Path 33" d="M77.636,73.09H11.364A11.364,11.364,0,0,1,0,61.726V26.4A11.364,11.364,0,0,1,11.364,15.037H77.636A11.364,11.364,0,0,1,89,26.4V61.726A11.364,11.364,0,0,1,77.636,73.09" fill="#ffad6d"/>
        <path id="Path_34" data-name="Path 34" d="M21.844,24.68h0a3.872,3.872,0,0,1-3.861-3.861V16.073a3.861,3.861,0,0,1,7.722,0v4.746a3.872,3.872,0,0,1-3.861,3.861" fill="#fe7d77"/>
        <path id="Path_35" data-name="Path 35" d="M21.742,19.42h0A2.751,2.751,0,0,1,19,16.677V13.2a2.743,2.743,0,1,1,5.486,0v3.475a2.751,2.751,0,0,1-2.743,2.743" fill="#fd4072"/>
        <path id="Path_36" data-name="Path 36" d="M66.344,24.68h0a3.872,3.872,0,0,1-3.861-3.861V16.073a3.861,3.861,0,0,1,7.722,0v4.746a3.872,3.872,0,0,1-3.861,3.861" fill="#fe7d77"/>
        <path id="Path_37" data-name="Path 37" d="M66.445,19.42h0A2.751,2.751,0,0,1,63.7,16.677V13.2a2.743,2.743,0,0,1,5.486,0v3.475a2.751,2.751,0,0,1-2.743,2.743" fill="#fd4072"/>
        <path id="Path_38" data-name="Path 38" d="M37.693,15.134H33.019V10.458a4.688,4.688,0,0,1,4.674-4.674Z" fill="#fd4072"/>
        <path id="Path_39" data-name="Path 39" d="M52.12,15.134h4.674V10.458A4.688,4.688,0,0,0,52.12,5.784Z" fill="#fd4072"/>
        <path id="Path_40" data-name="Path 40" d="M49.369,9.68H40.375A2.682,2.682,0,0,1,37.693,7V6.774a3.729,3.729,0,0,1,3.718-3.718h6.836A3.885,3.885,0,0,1,52.12,6.929,2.751,2.751,0,0,1,49.369,9.68" fill="#fe7d77"/>
        <path id="Path_41" data-name="Path 41" d="M17.983,42.505a4.879,4.879,0,0,1-4.978,4.773,4.777,4.777,0,1,1,0-9.546,4.879,4.879,0,0,1,4.978,4.773" fill="#9dcff6"/>
        <path id="Path_42" data-name="Path 42" d="M63.959,58.152c0,1.829-2.638,3.312-5.893,3.312s-5.892-1.483-5.892-3.312,2.638-3.312,5.892-3.312,5.893,1.483,5.893,3.312" fill="#c5e3e5"/>
        <rect id="Rectangle_11" data-name="Rectangle 11" width="14.63" height="7.208" transform="translate(23.063 31.304)" fill="#c5e3e5"/>
        <path id="Path_43" data-name="Path 43" d="M72.742,46.169H67.794a3.64,3.64,0,0,1,0-7.281h4.948a3.64,3.64,0,1,1,0,7.281" fill="#fdced3"/>
        <path id="Path_44" data-name="Path 44" d="M70.894,5.359,56.708,12.052,54.254,6.7,68.3,0Z" fill="#f2d8d7"/>
        <path id="Path_45" data-name="Path 45" d="M65.379,6.054l-.12.057L64.172,3.868l.12-.057Z" fill="#9dcff6"/>
        <path id="Path_46" data-name="Path 46" d="M67.093,5.245l-.12.057L65.886,3.059,66.006,3Z" fill="#9dcff6"/>
        <path id="Path_47" data-name="Path 47" d="M66.823,5.373l-.12.057L65.616,3.186l.12-.057Z" fill="#9dcff6"/>
        <path id="Path_48" data-name="Path 48" d="M66.642,5.458l-.12.057L65.435,3.271l.12-.057Z" fill="#9dcff6"/>
        <path id="Path_49" data-name="Path 49" d="M66.431,5.558l-.12.057L65.224,3.371l.12-.057Z" fill="#9dcff6"/>
        <path id="Path_50" data-name="Path 50" d="M66.1,5.714l-.12.057L64.894,3.527l.12-.057Z" fill="#9dcff6"/>
        <path id="Path_51" data-name="Path 51" d="M65.83,5.842l-.12.057L64.623,3.655l.12-.057Z" fill="#9dcff6"/>
        <path id="Path_52" data-name="Path 52" d="M65.667,5.919l-.12.057L64.46,3.732l.12-.057Z" fill="#9dcff6"/>
        <path id="Path_53" data-name="Path 53" d="M67.459,5.074l-.12.057L66.252,2.887l.12-.057Z" fill="#9dcff6"/>
        <path id="Path_54" data-name="Path 54" d="M69.174,4.265l-.12.057L67.967,2.078l.12-.057Z" fill="#9dcff6"/>
        <path id="Path_55" data-name="Path 55" d="M68.9,4.393l-.12.057L67.7,2.206l.12-.057Z" fill="#9dcff6"/>
        <path id="Path_56" data-name="Path 56" d="M68.723,4.478l-.12.057L67.516,2.291l.12-.057Z" fill="#9dcff6"/>
        <path id="Path_57" data-name="Path 57" d="M68.512,4.577l-.12.057L67.305,2.39l.12-.057Z" fill="#9dcff6"/>
        <path id="Path_58" data-name="Path 58" d="M68.181,4.733l-.12.057L66.974,2.546l.12-.057Z" fill="#9dcff6"/>
        <path id="Path_59" data-name="Path 59" d="M67.911,4.861l-.12.057L66.7,2.674l.12-.057Z" fill="#9dcff6"/>
        <path id="Path_60" data-name="Path 60" d="M67.747,4.938,67.627,5,66.54,2.751l.12-.057Z" fill="#9dcff6"/>
        <path id="Path_61" data-name="Path 61" d="M57.674,8.916l.034-.045-.234.3a.516.516,0,0,1,.08-.075l-.3.235a.9.9,0,0,1,.146-.08l-.358.152a1.211,1.211,0,0,1,.223-.055l-.4.054c.269-.028.53.035.8.033a2.361,2.361,0,0,0,1.448-.485,2.983,2.983,0,0,0,.736-.845c.119-.2.221-.406.357-.6l-.234.3a1.8,1.8,0,0,1,.3-.3l-.3.235a2.421,2.421,0,0,1,.488-.276l-.358.151a6.146,6.146,0,0,1,.922-.275A1.514,1.514,0,0,0,62.065,5.5,1.532,1.532,0,0,0,60.22,4.456a4.927,4.927,0,0,0-1.921.819,3.264,3.264,0,0,0-.815.916,6.636,6.636,0,0,1-.388.637l.234-.3a1.278,1.278,0,0,1-.192.19l.3-.235a1.094,1.094,0,0,1-.192.107l.359-.152a1.234,1.234,0,0,1-.206.049l.4-.053c-.315.026-.625-.053-.94-.025a2.412,2.412,0,0,0-1.032.281,2.307,2.307,0,0,0-.746.715,1.507,1.507,0,0,0-.152,1.156A1.5,1.5,0,0,0,56.778,9.6l.358-.151a1.508,1.508,0,0,0,.538-.538" fill="#9dcff6"/>
        <path id="Path_62" data-name="Path 62" d="M60.439,9.494l.028-.029-.3.235.033-.017-.358.151.038-.007-.4.053a.4.4,0,0,1,.085,0l-.4-.054a3.25,3.25,0,0,0,.628.072,1.721,1.721,0,0,0,1.191-.529,6.876,6.876,0,0,0,.591-.861l-.235.3a1.189,1.189,0,0,1,.2-.2l-.3.234a1.258,1.258,0,0,1,.156-.089l-.358.152c.392-.16.837-.194,1.242-.318.437-.134.862-.3,1.287-.466a1.63,1.63,0,0,0,.9-.689,1.531,1.531,0,0,0,.151-1.156,1.513,1.513,0,0,0-.689-.9,1.461,1.461,0,0,0-1.156-.152,11.848,11.848,0,0,1-2.029.653,2.781,2.781,0,0,0-1.385.66,5.665,5.665,0,0,0-.708.99l.235-.3a.426.426,0,0,1-.064.07l.3-.234-.04.025.358-.151-.041.013.4-.054a.57.57,0,0,1-.137,0l.4.053a2.519,2.519,0,0,0-.777-.045,1.589,1.589,0,0,0-.96.466,1.5,1.5,0,0,0,2.121,2.121" fill="#9dcff6"/>
        <path id="Path_63" data-name="Path 63" d="M56.778,12.062H52.118V8.23L54.254,6.7Z" fill="#f2d8d7"/>
      </g>
    </g>
    <g id="Group_9" data-name="Group 9" transform="translate(1785 101.614)">
      <rect id="Rectangle_13" data-name="Rectangle 13" width="88.165" height="59" fill="#fdced3"/>
      <rect id="Rectangle_14" data-name="Rectangle 14" width="9.66" height="9.558" transform="translate(72.836 3.96)" fill="#9dcff6"/>
      <g id="Group_8" data-name="Group 8">
        <g id="Group_7" data-name="Group 7" clip-path="url(#clip-path-4)">
          <path id="Path_64" data-name="Path 64" d="M7.016,11.441c3.584,0,3.592,1.97,7.176,1.969s3.577-1.972,7.163-1.973,3.592,1.97,7.176,1.969,3.578-1.972,7.163-1.973,3.592,1.97,7.177,1.969" fill="none" stroke="#fd4072" stroke-miterlimit="10" stroke-width="1"/>
          <path id="Path_65" data-name="Path 65" d="M11.791,30.743c6.455-.008,6.481,2.1,12.936,2.089s6.429-2.11,12.885-2.118,6.48,2.1,12.936,2.09,6.43-2.111,12.887-2.119,6.481,2.1,12.938,2.09" fill="none" stroke="#fd4072" stroke-miterlimit="10" stroke-width="1"/>
          <path id="Path_66" data-name="Path 66" d="M13.348,48.579c6.2-.009,6.235,1.815,12.438,1.807s6.17-1.835,12.373-1.841S44.394,50.36,50.6,50.352s6.171-1.835,12.374-1.841,6.236,1.816,12.44,1.807" fill="none" stroke="#fd4072" stroke-miterlimit="10" stroke-width="1"/>
          <path id="Path_67" data-name="Path 67" d="M12.76,39.945c6.262-.005,6.288,1.654,12.549,1.648s6.237-1.664,12.5-1.67,6.288,1.653,12.55,1.646,6.238-1.664,12.5-1.67,6.287,1.653,12.551,1.648" fill="none" stroke="#fd4072" stroke-miterlimit="10" stroke-width="1"/>
        </g>
      </g>
    </g>
    <g id="Group_3111" data-name="Group 3111" transform="translate(0 -170)">
      <rect id="Rectangle_16" data-name="Rectangle 16" width="392" height="466" rx="25" transform="translate(974 530)" fill="#fdced3"/>
      <text id="Hello_I_m_Emily._I_am_a_graphic_designer_and_junior_web_developer._I_am_very_versatile_when_it_comes_to_my_style_but_I_always_stay_true_to_my_fun_aesthetic._When_I_am_not_perfecting_my_code_I_am_learning_Spanish_or_dreaming_of_the_Turks_and_Caicos._Whe" data-name="Hello, I’m Emily. I am a graphic designer and junior web developer. I am very versatile when it comes to my style, but I always stay true to my fun aesthetic. When I am not perfecting my code, I am learning Spanish or dreaming of the Turks and Caicos.

Whe" transform="translate(990 593)" fill="#fd4072" font-size="18" font-family="Fraunces-Regular, Fraunces"><tspan x="0" y="18">Hello, I’m Emily. I am a graphic designer </tspan><tspan x="0" y="41">and junior web developer. I am very </tspan><tspan x="0" y="64">versatile when it comes to my style, but I </tspan><tspan x="0" y="87">always stay true to my fun aesthetic. When </tspan><tspan x="0" y="110">I am not perfecting my code, I am learning </tspan><tspan x="0" y="133">Spanish or dreaming of the Turks and </tspan><tspan x="0" y="156">Caicos.</tspan><tspan x="0" y="179"></tspan><tspan x="0" y="202">When I had the task of creating a website, I </tspan><tspan x="0" y="225">was so excited and I had so many ideas. I </tspan><tspan x="0" y="248">knew I wanted it to be feminine, bright, </tspan><tspan x="0" y="271">and fun— much like me! I wanted the </tspan><tspan x="0" y="294">visitor to immediately know who I am as a </tspan><tspan x="0" y="317">person</tspan><tspan x="0" y="340"></tspan><tspan x="0" y="363">Thank you for taking the time to view my </tspan><tspan x="0" y="386">site! Enjoy your stay!!</tspan></text>
      <text id="About" transform="translate(990 551)" fill="#fd4072" font-size="24" font-family="Fraunces-Regular, Fraunces"><tspan x="0" y="23">About</tspan></text>
    </g>
    <g id="Group_3017" data-name="Group 3017" transform="translate(1329.914 705.864) rotate(-5)">
      <g id="Group_3014" data-name="Group 3014" transform="translate(0 -3.972)">
        <g id="Group_3013" data-name="Group 3013" clip-path="url(#clip-path-5)">
          <path id="Path_2970" data-name="Path 2970" d="M3.166,53.2A7.654,7.654,0,0,1,0,55.276a7.913,7.913,0,0,1,6.037,2.411A6.787,6.787,0,0,1,6.8,66.176a7.571,7.571,0,0,1-3.84,2.934A7.911,7.911,0,0,1,9,71.52a6.787,6.787,0,0,1,.766,8.489,7.571,7.571,0,0,1-3.84,2.934,7.94,7.94,0,0,1,5.727,2.1,6.822,6.822,0,0,1,.925,9.012A7.7,7.7,0,0,1,7.648,97.1l.335,1.563c9.768,1.921,17.857,9.081,19.936,18.789s-2.441,19.216-10.668,24.489l.4,1.857a7.989,7.989,0,0,1,7.33,2.285,6.783,6.783,0,0,1,.753,8.467,7.568,7.568,0,0,1-3.843,2.939,7.91,7.91,0,0,1,6.036,2.411,6.787,6.787,0,0,1,.766,8.489,7.569,7.569,0,0,1-3.84,2.933,7.913,7.913,0,0,1,6.037,2.412,6.787,6.787,0,0,1,.766,8.489,7.571,7.571,0,0,1-3.84,2.933,7.985,7.985,0,0,1,5.239,1.684,6.869,6.869,0,0,1,2.515,7.035l236.95-44.137a6.774,6.774,0,0,1,.354-8.817,7.545,7.545,0,0,1,1.8-1.445l-.153-.715a7.842,7.842,0,0,1-4.059-1.883,6.849,6.849,0,0,1-1.141-9.045,7.441,7.441,0,0,1,2.39-2.191l-.153-.715a7.844,7.844,0,0,1-4.059-1.883A6.849,6.849,0,0,1,266.352,114a7.435,7.435,0,0,1,2.39-2.191l-.153-.715a7.84,7.84,0,0,1-4.058-1.883,6.848,6.848,0,0,1-1.141-9.044,7.428,7.428,0,0,1,2.39-2.191l-.436-2.035c-10.026-1.748-18.4-8.992-20.516-18.892s2.624-19.587,11.162-24.792l-.4-1.875a7.844,7.844,0,0,1-4.059-1.883,6.849,6.849,0,0,1-1.141-9.044,7.441,7.441,0,0,1,2.39-2.191l-.153-.715a7.842,7.842,0,0,1-4.058-1.883,6.848,6.848,0,0,1-1.141-9.044,7.434,7.434,0,0,1,2.39-2.191l-.153-.715a7.842,7.842,0,0,1-4.058-1.883,6.848,6.848,0,0,1-1.141-9.044,7.439,7.439,0,0,1,2.39-2.191L246.7,8.88a7.882,7.882,0,0,1-3.716-1.595A6.857,6.857,0,0,1,240.54,0L3.362,44.179a6.783,6.783,0,0,1-.2,9.025" transform="translate(0 0)" fill="#ffdcd9"/>
          <path id="Path_2979" data-name="Path 2979" d="M0,0,2.515.032,3.207,50.62.692,50.588Z" transform="translate(154.51 112.201) rotate(-11.154)" fill="#9dcff6"/>
          <path id="Path_2980" data-name="Path 2980" d="M0,0,2.515.032,3.207,50.62.692,50.588Z" transform="translate(189.768 105.717) rotate(-11.154)" fill="#9dcff6"/>
          <path id="Path_2981" data-name="Path 2981" d="M0,0,2.515.032,3.207,50.62.692,50.588Z" transform="translate(184.201 106.741) rotate(-11.154)" fill="#9dcff6"/>
          <path id="Path_2982" data-name="Path 2982" d="M0,0,2.515.032,3.207,50.62.692,50.588Z" transform="translate(180.489 107.423) rotate(-11.154)" fill="#9dcff6"/>
          <path id="Path_2983" data-name="Path 2983" d="M0,0,2.515.032,3.207,50.62.692,50.588Z" transform="translate(176.159 108.22) rotate(-11.154)" fill="#9dcff6"/>
          <path id="Path_2984" data-name="Path 2984" d="M0,0,2.515.032,3.207,50.62.692,50.588Z" transform="translate(169.355 109.471) rotate(-11.154)" fill="#9dcff6"/>
          <path id="Path_2985" data-name="Path 2985" d="M0,0,2.515.032,3.207,50.62.692,50.588Z" transform="translate(163.788 110.494) rotate(-11.154)" fill="#9dcff6"/>
          <path id="Path_2986" data-name="Path 2986" d="M0,0,2.515.032,3.207,50.62.692,50.588Z" transform="translate(160.43 111.112) rotate(-11.154)" fill="#9dcff6"/>
          <path id="Path_2987" data-name="Path 2987" d="M0,0,2.515.032,3.207,50.62.692,50.588Z" transform="translate(197.294 104.355) rotate(-11.154)" fill="#9dcff6"/>
          <path id="Path_2988" data-name="Path 2988" d="M0,0,2.515.032,3.207,50.62.692,50.588Z" transform="translate(232.552 97.872) rotate(-11.154)" fill="#9dcff6"/>
          <path id="Path_2989" data-name="Path 2989" d="M0,0,2.515.032,3.207,50.62.692,50.588Z" transform="translate(226.985 98.895) rotate(-11.154)" fill="#9dcff6"/>
          <path id="Path_2990" data-name="Path 2990" d="M0,0,2.515.032,3.207,50.62.692,50.588Z" transform="translate(223.273 99.578) rotate(-11.154)" fill="#9dcff6"/>
          <path id="Path_2991" data-name="Path 2991" d="M0,0,2.515.032,3.207,50.62.692,50.588Z" transform="translate(218.943 100.374) rotate(-11.154)" fill="#9dcff6"/>
          <path id="Path_2992" data-name="Path 2992" d="M0,0,2.515.032,3.207,50.62.692,50.588Z" transform="translate(212.139 101.625) rotate(-11.154)" fill="#9dcff6"/>
          <path id="Path_2993" data-name="Path 2993" d="M0,0,2.515.032,3.207,50.62.692,50.588Z" transform="translate(206.572 102.649) rotate(-11.154)" fill="#9dcff6"/>
          <path id="Path_2994" data-name="Path 2994" d="M0,0,2.515.032,3.207,50.62.692,50.588Z" transform="translate(203.214 103.266) rotate(-11.154)" fill="#9dcff6"/>
          <path id="Path_2971" data-name="Path 2971" d="M58.649,128.8l-1.284.644-5.21-8.084a1.754,1.754,0,0,0-.3-.385.632.632,0,0,0-.315-.136l-.264-.049a.536.536,0,0,1-.276-.126.431.431,0,0,1-.114-.222.374.374,0,0,1,.038-.291.389.389,0,0,1,.273-.153l3.323-.611a.45.45,0,0,1,.326.042.37.37,0,0,1,.165.254.416.416,0,0,1-.279.482l-.421.185c-.187.091-.292.193-.316.305a.735.735,0,0,0,.149.478L58.433,128l-.51.588,1.238-7.958a1.261,1.261,0,0,0-.064-.751.624.624,0,0,0-.529-.323l-.521-.022a.411.411,0,0,1-.224-.1.434.434,0,0,1-.126-.24.336.336,0,0,1,.3-.442l2.361-.435a.412.412,0,0,1,.311.045.384.384,0,0,1,.157.255.411.411,0,0,1-.013.239.559.559,0,0,1-.2.219l-.1.074a.779.779,0,0,0-.246.244,1.542,1.542,0,0,0-.173.419,6.358,6.358,0,0,0-.147.752Zm-1.745-.259,1.778-.338.8,3.8a.621.621,0,0,0,.176.344.6.6,0,0,0,.316.147l.538.03a.425.425,0,0,1,.37.362.4.4,0,0,1-.031.285.341.341,0,0,1-.257.155l-3.385.622a.36.36,0,0,1-.3-.052.418.418,0,0,1-.145-.253.4.4,0,0,1,.195-.466l.486-.218a.53.53,0,0,0,.237-.248.616.616,0,0,0,.019-.38Z" transform="translate(-23.018 -57.894)" fill="#fd4072"/>
          <path id="Path_2972" data-name="Path 2972" d="M77.668,125.049l-1.284.644-5.21-8.084a1.766,1.766,0,0,0-.3-.385.632.632,0,0,0-.315-.136l-.264-.049a.536.536,0,0,1-.276-.126.431.431,0,0,1-.114-.222.374.374,0,0,1,.038-.291.389.389,0,0,1,.273-.153l3.323-.611a.45.45,0,0,1,.326.042.37.37,0,0,1,.165.254.416.416,0,0,1-.279.482l-.421.185q-.28.136-.316.3a.737.737,0,0,0,.149.478l4.292,6.865-.51.588,1.238-7.958a1.261,1.261,0,0,0-.064-.751.624.624,0,0,0-.529-.323l-.521-.022a.411.411,0,0,1-.224-.1.434.434,0,0,1-.126-.24.336.336,0,0,1,.3-.442l2.361-.435a.411.411,0,0,1,.311.045.384.384,0,0,1,.157.255.411.411,0,0,1-.013.239.563.563,0,0,1-.2.219l-.1.073a.779.779,0,0,0-.246.244,1.542,1.542,0,0,0-.173.419,6.36,6.36,0,0,0-.147.752Zm-1.745-.259,1.778-.338.8,3.8a.621.621,0,0,0,.176.344.6.6,0,0,0,.316.147l.538.03a.425.425,0,0,1,.37.362.4.4,0,0,1-.031.285.341.341,0,0,1-.257.155l-3.385.622a.359.359,0,0,1-.3-.052.418.418,0,0,1-.145-.253.4.4,0,0,1,.195-.466l.486-.218a.528.528,0,0,0,.237-.248.616.616,0,0,0,.019-.38Z" transform="translate(-31.624 -56.059)" fill="#fd4072"/>
          <path id="Path_2973" data-name="Path 2973" d="M98.02,112.454l-3.512,14.171-.987-.313,4.63-.851a2.487,2.487,0,0,0,.684-.218,1.2,1.2,0,0,0,.465-.429,2.327,2.327,0,0,0,.289-.773,9.554,9.554,0,0,0,.159-1.239l.055-.9a.447.447,0,0,1,.1-.3.33.33,0,0,1,.481.062.759.759,0,0,1,.094.369l.182,3.6a1.213,1.213,0,0,1-.063.474.327.327,0,0,1-.261.209.412.412,0,0,1-.279-.045,2.956,2.956,0,0,0-.3-.138.735.735,0,0,0-.41-.021l-6.227,1.145a.4.4,0,0,1-.333-.057.488.488,0,0,1-.161-.293,1.031,1.031,0,0,1-.015-.3,2.517,2.517,0,0,1,.063-.377l3.537-14.24.319.458-3.7.68a1.45,1.45,0,0,0-.647.28,1.381,1.381,0,0,0-.418.631,4.3,4.3,0,0,0-.206,1.108l-.051.848a.619.619,0,0,1-.128.351.272.272,0,0,1-.246.093.322.322,0,0,1-.257-.146.82.82,0,0,1-.126-.428l-.163-3.023a1.1,1.1,0,0,1,.066-.512.359.359,0,0,1,.274-.206.389.389,0,0,1,.288.065c.095.061.2.122.316.183a.6.6,0,0,0,.4.05l5.638-1.037a.4.4,0,0,1,.327.063.488.488,0,0,1,.17.3,1.1,1.1,0,0,1,.013.3,2.519,2.519,0,0,1-.07.405" transform="translate(-40.992 -54.503)" fill="#fd4072"/>
          <path id="Path_2974" data-name="Path 2974" d="M121.053,123.289q.435-.08.391.5l-.039.641a.733.733,0,0,1-.1.383.409.409,0,0,1-.267.146l-3.713.683q-.434.08-.393-.508l.041-.632a.761.761,0,0,1,.1-.39.394.394,0,0,1,.256-.138Z" transform="translate(-52.91 -60.329)" fill="#fd4072"/>
          <path id="Path_2975" data-name="Path 2975" d="M141.323,108.669a5.1,5.1,0,0,1,0,2.4,3.569,3.569,0,0,1-1.067,1.766,3.956,3.956,0,0,1-1.98.923,4.845,4.845,0,0,1-1.542.046,3.754,3.754,0,0,1-1.324-.423l-.06-.774a2.829,2.829,0,0,0,.712.3,3.418,3.418,0,0,0,.8.123,3.649,3.649,0,0,0,.809-.057,2.291,2.291,0,0,0,1.283-.671,2.682,2.682,0,0,0,.666-1.391,5.043,5.043,0,0,0-.071-1.971,6.139,6.139,0,0,0-.886-2.2,3.632,3.632,0,0,0-1.46-1.3,3.029,3.029,0,0,0-1.874-.209l-.8.147,2.577,12.191a.721.721,0,0,0,.17.355.446.446,0,0,0,.322.135l.8-.018a.388.388,0,0,1,.268.085.5.5,0,0,1,.132.272.4.4,0,0,1-.031.285.355.355,0,0,1-.265.156l-3.667.674a.373.373,0,0,1-.3-.052.411.411,0,0,1-.148-.252.4.4,0,0,1,.2-.468l.478-.217a.551.551,0,0,0,.241-.249.6.6,0,0,0,.022-.38l-2.441-11.549a.631.631,0,0,0-.175-.339.574.574,0,0,0-.326-.15l-.531-.031a.426.426,0,0,1-.378-.361.385.385,0,0,1,.034-.291.363.363,0,0,1,.262-.151l3.43-.631a5.353,5.353,0,0,1,2.851.175,4.75,4.75,0,0,1,2.117,1.53,6.051,6.051,0,0,1,1.165,2.564" transform="translate(-59.481 -51.035)" fill="#fd4072"/>
          <path id="Path_2976" data-name="Path 2976" d="M153.917,101.633l-.478.217a.55.55,0,0,0-.241.249.6.6,0,0,0-.023.38l2.424,11.467a.759.759,0,0,0,.292.516.807.807,0,0,0,.585.065l1.62-.3a1.629,1.629,0,0,0,.716-.294,1.344,1.344,0,0,0,.423-.647,5.578,5.578,0,0,0,.228-1.193l.14-1.477a.577.577,0,0,1,.112-.316.259.259,0,0,1,.233-.081.3.3,0,0,1,.25.132.665.665,0,0,1,.1.375l.109,3.743a1.209,1.209,0,0,1-.07.475.327.327,0,0,1-.256.2.483.483,0,0,1-.3-.047q-.154-.074-.336-.142a.807.807,0,0,0-.434-.022l-5.654,1.04a.372.372,0,0,1-.3-.052.411.411,0,0,1-.148-.252.4.4,0,0,1,.2-.468l.478-.217a.55.55,0,0,0,.241-.249.6.6,0,0,0,.023-.38L151.4,102.805a.623.623,0,0,0-.176-.344.59.59,0,0,0-.324-.146l-.531-.031a.426.426,0,0,1-.378-.361.384.384,0,0,1,.034-.291.363.363,0,0,1,.262-.151l3.377-.621a.379.379,0,0,1,.307.046.413.413,0,0,1,.146.257.4.4,0,0,1-.2.468" transform="translate(-67.865 -49.353)" fill="#fd4072"/>
          <path id="Path_2977" data-name="Path 2977" d="M174.764,111.517a2.779,2.779,0,0,1-1.209-.014,4.758,4.758,0,0,1-.88-.312.983.983,0,0,0-.472-.149.219.219,0,0,0-.173.177,2.533,2.533,0,0,0-.07.346,2.054,2.054,0,0,1-.074.341.228.228,0,0,1-.178.173.263.263,0,0,1-.232-.065.749.749,0,0,1-.183-.321l-1.259-3.177a.619.619,0,0,1-.044-.336.364.364,0,0,1,.153-.232.242.242,0,0,1,.257-.042.625.625,0,0,1,.249.26,7.473,7.473,0,0,0,1.3,1.637,3.549,3.549,0,0,0,1.293.784,2.562,2.562,0,0,0,1.237.089,1.569,1.569,0,0,0,1.205-.872,2.667,2.667,0,0,0,.142-1.731,3.309,3.309,0,0,0-.462-1.135,2.872,2.872,0,0,0-1.027-.9,8.219,8.219,0,0,0-1.948-.711,7.046,7.046,0,0,1-2.089-.852,4.171,4.171,0,0,1-1.323-1.338,6.019,6.019,0,0,1-.725-1.909,5.075,5.075,0,0,1-.028-2.2A3.269,3.269,0,0,1,169.1,97.4a3.053,3.053,0,0,1,1.64-.823,2.9,2.9,0,0,1,1.229-.006,3.881,3.881,0,0,1,.824.295.848.848,0,0,0,.5.134q.168-.031.18-.259c.008-.152.02-.306.037-.463a.266.266,0,0,1,.454-.2,1.257,1.257,0,0,1,.24.386l1.455,3.237a.75.75,0,0,1,.071.391.4.4,0,0,1-.143.279.253.253,0,0,1-.259.031.662.662,0,0,1-.255-.248,8.723,8.723,0,0,0-1.4-1.812,3.724,3.724,0,0,0-1.336-.856,2.531,2.531,0,0,0-1.267-.1,1.645,1.645,0,0,0-1.25.94,2.88,2.88,0,0,0-.145,1.886,3.435,3.435,0,0,0,.479,1.175,3.163,3.163,0,0,0,1.033.945,8.088,8.088,0,0,0,1.885.771,8.2,8.2,0,0,1,2.143.9,4.077,4.077,0,0,1,1.3,1.282,5.481,5.481,0,0,1,.685,1.777,4.961,4.961,0,0,1,.022,2,3.254,3.254,0,0,1-.8,1.6,2.9,2.9,0,0,1-1.651.846" transform="translate(-76.073 -46.983)" fill="#fd4072"/>
        </g>
      </g>
      <text id="_" data-name=" " transform="matrix(0.246, -0.969, 0.969, 0.246, 68.912, 137.067)" fill="#ffad6d" font-size="24" font-family="Fraunces-Regular, Fraunces"><tspan x="0" y="0"> </tspan></text>
      <text id="_2" data-name=" " transform="translate(80.805 122.882) rotate(4.878)" fill="#ffad6d" font-size="24" font-family="Fraunces-Regular, Fraunces"><tspan x="0" y="0"> </tspan></text>
      <g id="Group_3016" data-name="Group 3016">
        <g id="Group_3015" data-name="Group 3015" clip-path="url(#clip-path-5)">
          <path id="Path_2978" data-name="Path 2978" d="M321.523,85.181c-29.969,32.895-47.114-15.69-2.676-7.583-44.439-8.107-8.927-47.085,5.542-6.083-14.469-41,38.188-31.4,8.218,1.5,29.97-32.895,47.114,15.69,2.676,7.582,44.438,8.108,8.927,47.086-5.542,6.083,14.469,41-38.187,31.4-8.218-1.5" transform="translate(-130.037 -26.727)" fill="#ffad6d"/>
        </g>
      </g>
      <g id="Group_3019" data-name="Group 3019" transform="matrix(0.602, -0.799, 0.799, 0.602, 58.689, 143.899)">
        <g id="Group_3018" data-name="Group 3018" clip-path="url(#clip-path-7)">
          <text id="E" transform="matrix(0.076, -0.997, 0.997, 0.076, 7.073, 28.516)" fill="#ffad6d" font-size="6.905" font-family="Fraunces-Regular, Fraunces"><tspan x="0" y="0">E</tspan></text>
          <text id="n" transform="matrix(0.327, -0.945, 0.945, 0.327, 7.381, 24.191)" fill="#ffad6d" font-size="6.905" font-family="Fraunces-Regular, Fraunces"><tspan x="0" y="0">n</tspan></text>
          <text id="j" transform="matrix(0.496, -0.868, 0.868, 0.496, 8.836, 20.239)" fill="#ffad6d" font-size="6.905" font-family="Fraunces-Regular, Fraunces"><tspan x="0" y="0">j</tspan></text>
          <text id="o" transform="matrix(0.644, -0.765, 0.765, 0.644, 9.7, 18.503)" fill="#ffad6d" font-size="6.905" font-family="Fraunces-Regular, Fraunces"><tspan x="0" y="0">o</tspan></text>
          <text id="y" transform="matrix(0.801, -0.599, 0.599, 0.801, 12.122, 15.578)" fill="#ffad6d" font-size="6.905" font-family="Fraunces-Regular, Fraunces"><tspan x="0" y="0">y</tspan></text>
          <text id="_3" data-name=" " transform="matrix(0.888, -0.461, 0.461, 0.888, 15.184, 13.39)" fill="#ffad6d" font-size="6.905" font-family="Fraunces-Regular, Fraunces"><tspan x="0" y="0"> </tspan></text>
          <text id="y-2" data-name="y" transform="matrix(0.951, -0.308, 0.308, 0.951, 16.391, 12.637)" fill="#ffad6d" font-size="6.905" font-family="Fraunces-Regular, Fraunces"><tspan x="0" y="0">y</tspan></text>
          <text id="o-2" data-name="o" transform="matrix(0.997, -0.074, 0.074, 0.997, 19.753, 11.482)" fill="#ffad6d" font-size="6.905" font-family="Fraunces-Regular, Fraunces"><tspan x="0" y="0">o</tspan></text>
          <text id="u" transform="matrix(0.982, 0.189, -0.189, 0.982, 23.625, 11.145)" fill="#ffad6d" font-size="6.905" font-family="Fraunces-Regular, Fraunces"><tspan x="0" y="0">u</tspan></text>
          <text id="r" transform="matrix(0.912, 0.409, -0.409, 0.912, 27.605, 11.944)" fill="#ffad6d" font-size="6.905" font-family="Fraunces-Regular, Fraunces"><tspan x="0" y="0">r</tspan></text>
          <text id="_4" data-name=" " transform="matrix(0.842, 0.54, -0.54, 0.842, 30.35, 13.224)" fill="#ffad6d" font-size="6.905" font-family="Fraunces-Regular, Fraunces"><tspan x="0" y="0"> </tspan></text>
          <text id="_5" data-name="ﬂ" transform="matrix(0.719, 0.695, -0.695, 0.719, 31.621, 13.83)" fill="#ffad6d" font-size="6.905" font-family="Fraunces-Regular, Fraunces"><tspan x="0" y="0">ﬂ</tspan></text>
          <text id="i" transform="matrix(0.559, 0.829, -0.829, 0.559, 34.798, 17.057)" fill="#ffad6d" font-size="6.905" font-family="Fraunces-Regular, Fraunces"><tspan x="0" y="0">i</tspan></text>
          <text id="g" transform="matrix(0.4, 0.916, -0.916, 0.4, 35.964, 18.604)" fill="#ffad6d" font-size="6.905" font-family="Fraunces-Regular, Fraunces"><tspan x="0" y="0">g</tspan></text>
          <text id="h" transform="matrix(0.166, 0.986, -0.986, 0.166, 37.501, 21.975)" fill="#ffad6d" font-size="6.905" font-family="Fraunces-Regular, Fraunces"><tspan x="0" y="0">h</tspan></text>
          <text id="t" transform="matrix(-0.037, 0.999, -0.999, -0.037, 38.131, 26.131)" fill="#ffad6d" font-size="6.905" font-family="Fraunces-Regular, Fraunces"><tspan x="0" y="0">t</tspan></text>
          <text id="_6" data-name="!" transform="matrix(-0.172, 0.985, -0.985, -0.172, 38.039, 28.55)" fill="#ffad6d" font-size="6.905" font-family="Fraunces-Regular, Fraunces"><tspan x="0" y="0">!</tspan></text>
        </g>
      </g>
    </g>
    <g id="Group_3012" data-name="Group 3012" transform="translate(1406.672 714.033) rotate(-17)">
      <g id="Group_3011" data-name="Group 3011" transform="translate(272.563 -281.814) rotate(43)" clip-path="url(#clip-path-8)">
        <path id="Path_2964" data-name="Path 2964" d="M152.017,777.67l-27.31,11.547c-1.82.77-1.328,3.8.617,3.8h54.621c1.945,0,2.437-3.026.617-3.8l-27.31-11.547a1.572,1.572,0,0,0-1.234,0" transform="translate(-96.275 -584.956)" fill="#c5e3e5"/>
        <path id="Path_2965" data-name="Path 2965" d="M1.725,102.348l109.237-.047a1.956,1.956,0,0,1,1.37,3.1L57.739,185.765a1.613,1.613,0,0,1-2.739,0L.356,105.45a1.956,1.956,0,0,1,1.368-3.1" transform="translate(0 -76.962)" fill="#c5e3e5"/>
        <rect id="Rectangle_316" data-name="Rectangle 316" width="6.775" height="121.352" transform="translate(52.887 83.982)" fill="#c5e3e5"/>
        <rect id="Rectangle_317" data-name="Rectangle 317" width="6.775" height="121.352" transform="translate(52.887 83.982)" fill="none" stroke="#c5e3e5" stroke-miterlimit="10" stroke-width="1"/>
        <path id="Path_2966" data-name="Path 2966" d="M124.137,231.4,87.5,179.527l73.891-.979Z" transform="translate(-68.174 -134.324)" fill="#d8efd9"/>
        <path id="Path_2967" data-name="Path 2967" d="M345.074,38.528l-1.438-1.034L364.83,0Z" transform="translate(-267.728 0)" fill="#c6ae98"/>
        <path id="Path_2968" data-name="Path 2968" d="M258.256,183.195,279.45,145.7l-1.438-1.034" transform="translate(-201.208 -108.834)" fill="#c6ae98"/>
        <path id="Path_2969" data-name="Path 2969" d="M332.825,117.561c-2.935,5.449-7.286,8.448-9.718,6.7s-2.025-7.585.911-13.034,7.286-8.448,9.718-6.7,2.025,7.585-.911,13.034" transform="translate(-250.497 -78.262)" fill="#74b560"/>
      </g>
    </g>
    <g id="Group_3115" data-name="Group 3115" transform="translate(451.135 275.334)">
      <g id="Group_3114" data-name="Group 3114" transform="translate(-0.135 0)" clip-path="url(#clip-path-9)">
        <path id="Path_3855" data-name="Path 3855" d="M0,291.833C0,453.008,201.614,583.666,282.24,583.666S508.866,453.008,508.866,291.833,362.865,0,282.24,0,0,130.658,0,291.833" transform="translate(0.135 0)" fill="#c5e3e5"/>
        <path id="Path_3856" data-name="Path 3856" d="M441.474,853.787H416.568L411.474,683h35.66Z" transform="translate(-178.431 -290.247)" fill="#ffdbb8"/>
        <path id="Path_3857" data-name="Path 3857" d="M389.6,557.264c0,10.639-5.955,19.264-13.3,19.264S363,567.9,363,557.264,368.955,538,376.3,538s13.3,8.624,13.3,19.264" transform="translate(-157.395 -228.628)" fill="#ffdbb8"/>
        <path id="Path_3858" data-name="Path 3858" d="M566.6,560.264c0,10.639-5.955,19.264-13.3,19.264S540,570.9,540,560.264,545.955,541,553.3,541s13.3,8.624,13.3,19.264" transform="translate(-234.207 -229.903)" fill="#ffdbb8"/>
        <path id="Path_3859" data-name="Path 3859" d="M482.283,134.188V244.277c0,27.716-23.57,50.188-52.641,50.188S377,271.993,377,244.277V134.188c0-.539.011-1.079.028-1.619C377.923,105.6,401.136,84,429.641,84a53.8,53.8,0,0,1,37.222,14.7,48.936,48.936,0,0,1,15.39,33.869c.017.539.028,1.079.028,1.619" transform="translate(-163.47 -35.697)" fill="#6b4e37"/>
        <rect id="Rectangle_374" data-name="Rectangle 374" width="22" height="90" transform="translate(306 228.666)" fill="#ffdbb8"/>
        <rect id="Rectangle_375" data-name="Rectangle 375" width="22" height="91" transform="translate(210 229.666)" fill="#ffdbb8"/>
        <path id="Path_3860" data-name="Path 3860" d="M534.038,193.226h-4.528a6.614,6.614,0,0,1,0-13.226h4.528a6.614,6.614,0,0,1,0,13.226" transform="translate(-226.829 -76.493)" fill="#f9c095"/>
        <path id="Path_3861" data-name="Path 3861" d="M397.038,193.226h-4.528a6.614,6.614,0,0,1,0-13.226h4.528a6.614,6.614,0,0,1,0,13.226" transform="translate(-167.376 -76.493)" fill="#f9c095"/>
        <path id="Path_3862" data-name="Path 3862" d="M475.83,297.555H443V248.676a16.417,16.417,0,1,1,32.83,0Z" transform="translate(-192.112 -98.591)" fill="#f9c095"/>
        <path id="Path_3863" data-name="Path 3863" d="M439.038,211.983h0c-22.571,0-41.038-18.761-41.038-41.69v-27.6c0-22.93,18.467-41.69,41.038-41.69s41.038,18.761,41.038,41.69v27.6c0,22.93-18.467,41.69-41.038,41.69" transform="translate(-172.584 -42.921)" fill="#ffd0a9"/>
        <path id="Path_3864" data-name="Path 3864" d="M439.038,208.882h0c-22.571,0-41.038-18.761-41.038-41.69v-11.5c0-22.93,18.467-41.69,41.038-41.69s41.038,18.761,41.038,41.69v11.5c0,22.93-18.467,41.69-41.038,41.69" transform="translate(-172.584 -48.445)" fill="#ffdbb8"/>
        <path id="Path_3865" data-name="Path 3865" d="M481.018,122.329h-24.91a19.757,19.757,0,0,1-16.939-9.873l-9.661-16.291-9.26,16.193a19.4,19.4,0,0,1-16.785,9.971H378C378.876,93.275,401.6,70,429.509,70a50.2,50.2,0,0,1,36.441,15.838,55.17,55.17,0,0,1,15.068,36.49" transform="translate(-163.904 -29.747)" fill="#6b4e37"/>
        <path id="Path_3866" data-name="Path 3866" d="M474.723,232.745c-2.537,16.644-30.757,18.854-37.268.147Z" transform="translate(-189.706 -98.907)" fill="#fff"/>
        <path id="Path_3867" data-name="Path 3867" d="M369.327,369.828H404.86a2.346,2.346,0,0,0,2.328-2.365v-36.1A2.346,2.346,0,0,0,404.86,329h-2.7C382.74,329,367,344.991,367,364.717v2.746a2.347,2.347,0,0,0,2.328,2.365" transform="translate(-159.13 -139.812)" fill="#fe7d77"/>
        <path id="Path_3868" data-name="Path 3868" d="M483.222,420.182H398.815a.822.822,0,0,1-.815-.828V354.031A30.791,30.791,0,0,1,428.545,323h24.947a30.791,30.791,0,0,1,30.545,31.031v65.323a.822.822,0,0,1-.815.828" transform="translate(-172.584 -137.262)" fill="#fe7d77"/>
        <path id="Path_3869" data-name="Path 3869" d="M488.075,581.01H376V490.441C376,464.24,396.907,443,422.7,443h18.679c25.791,0,46.7,21.24,46.7,47.441Z" transform="translate(-163.036 -188.257)" fill="#fe7d77"/>
        <path id="Path_3870" data-name="Path 3870" d="M474.792,466.676H401.208a8.339,8.339,0,0,1,0-16.676h73.585a8.339,8.339,0,0,1,0,16.676" transform="translate(-170.414 -191.232)" fill="#ffad6d"/>
        <path id="Path_3871" data-name="Path 3871" d="M460.547,341.2l15.283-23-3.4-5.175L467.906,309l-9.623.575-5.094,2.875-5.66-.575-4.528,6.9Z" transform="translate(-192.112 -131.313)" fill="#f9c095"/>
        <path id="Path_3872" data-name="Path 3872" d="M497.66,188.676h0a5.706,5.706,0,0,1-5.66-5.75V177.75a5.661,5.661,0,1,1,11.321,0v5.175a5.706,5.706,0,0,1-5.66,5.75" transform="translate(-213.376 -73.093)" fill="#191301"/>
        <path id="Path_3873" data-name="Path 3873" d="M497.66,192.676h0a5.706,5.706,0,0,1-5.66-5.75V181.75a5.661,5.661,0,1,1,11.321,0v5.175a5.706,5.706,0,0,1-5.66,5.75" transform="translate(-213.376 -74.793)" fill="#4d6052"/>
        <path id="Path_3874" data-name="Path 3874" d="M513.925,169.424c-1.7,2.357-3.7,3.8-4.472,3.226s1.725-1.65,3.421-4.007a32.3,32.3,0,0,0,2.719-4.528,9.99,9.99,0,0,1-1.668,5.309" transform="translate(-220.887 -69.742)" fill="#191301"/>
        <path id="Path_3875" data-name="Path 3875" d="M511.311,170.017c-1.219,1.7-2.629,2.756-3.149,2.37s1.224-1.2,2.443-2.894a24.821,24.821,0,0,0,1.973-3.244,7.5,7.5,0,0,1-1.267,3.768" transform="translate(-220.349 -70.649)" fill="#191301"/>
        <path id="Path_3876" data-name="Path 3876" d="M516.19,172.056c-2.1,2.156-4.353,3.349-5.034,2.665s2.01-1.438,4.11-3.594a34.58,34.58,0,0,0,3.494-4.213,10.583,10.583,0,0,1-2.57,5.142" transform="translate(-221.642 -70.932)" fill="#191301"/>
        <path id="Path_3877" data-name="Path 3877" d="M433.66,188.676h0a5.706,5.706,0,0,0,5.66-5.75V177.75a5.661,5.661,0,1,0-11.321,0v5.175a5.706,5.706,0,0,0,5.66,5.75" transform="translate(-185.602 -73.093)" fill="#191301"/>
        <path id="Path_3878" data-name="Path 3878" d="M433.66,192.676h0a5.706,5.706,0,0,0,5.66-5.75V181.75a5.661,5.661,0,1,0-11.321,0v5.175a5.706,5.706,0,0,0,5.66,5.75" transform="translate(-185.602 -74.793)" fill="#4d6052"/>
        <path id="Path_3879" data-name="Path 3879" d="M421.257,169.424c1.7,2.357,3.7,3.8,4.472,3.226S424,171,422.308,168.643a32.293,32.293,0,0,1-2.719-4.528,9.99,9.99,0,0,0,1.668,5.309" transform="translate(-181.952 -69.742)" fill="#191301"/>
        <path id="Path_3880" data-name="Path 3880" d="M425.231,170.017c1.219,1.7,2.629,2.756,3.149,2.37s-1.224-1.2-2.443-2.894a24.822,24.822,0,0,1-1.973-3.244,7.5,7.5,0,0,0,1.267,3.768" transform="translate(-183.851 -70.649)" fill="#191301"/>
        <path id="Path_3881" data-name="Path 3881" d="M417.9,172.056c2.1,2.156,4.353,3.349,5.034,2.665s-2.011-1.438-4.11-3.594a34.577,34.577,0,0,1-3.494-4.213,10.583,10.583,0,0,0,2.57,5.142" transform="translate(-180.103 -70.932)" fill="#191301"/>
        <path id="Path_3882" data-name="Path 3882" d="M494.452,109.651c0,6.987-43.082,12.651-96.226,12.651S302,116.638,302,109.651,345.082,97,398.226,97s96.226,5.664,96.226,12.651" transform="translate(-130.923 -41.221)" fill="#e0a879"/>
        <path id="Path_3883" data-name="Path 3883" d="M480.754,83.926c0-11.647-24.641-33.011-49.556-34.845C408.26,47.393,380,72.279,380,83.926s27.156,7.336,51.2,7.336,49.556,4.312,49.556-7.336" transform="translate(-164.772 -20.823)" fill="#e0a879"/>
        <path id="Path_3884" data-name="Path 3884" d="M475.66,98.651H386.226a6.326,6.326,0,0,1,0-12.651H475.66a6.326,6.326,0,0,1,0,12.651" transform="translate(-164.772 -36.546)" fill="#fe7d77"/>
        <path id="Path_3885" data-name="Path 3885" d="M512,853.787H487.094L482,683h35.66Z" transform="translate(-209.037 -290.247)" fill="#ffdbb8"/>
        <path id="Path_3886" data-name="Path 3886" d="M447.094,696.226H412V683h35.66Z" transform="translate(-178.659 -290.247)" fill="#f9c095"/>
        <rect id="Rectangle_376" data-name="Rectangle 376" width="36" height="13" transform="translate(273 392.666)" fill="#f9c095"/>
        <path id="Path_3887" data-name="Path 3887" d="M518.264,962.089c0,7.781-7.223,4.313-16.132,4.313S486,969.869,486,962.089,493.223,948,502.132,948s16.132,6.308,16.132,14.089" transform="translate(-210.772 -402.862)" fill="#fe7d77"/>
        <path id="Path_3888" data-name="Path 3888" d="M446.528,962.089c0,7.781-7.3,4.313-16.832,4.313s-17.7,3.468-17.7-4.313S419.729,948,429.264,948s17.264,6.308,17.264,14.089" transform="translate(-178.659 -402.862)" fill="#fe7d77"/>
        <path id="Path_3889" data-name="Path 3889" d="M546.861,369.828H511.328A2.346,2.346,0,0,1,509,367.463v-36.1A2.346,2.346,0,0,1,511.328,329h2.7c19.417,0,35.158,15.991,35.158,35.717v2.746a2.346,2.346,0,0,1-2.328,2.365" transform="translate(-220.754 -139.812)" fill="#fe7d77"/>
      </g>
    </g>
    <g id="Group_11" data-name="Group 11" transform="translate(284.959 511.286) rotate(-9)">
      <g id="Group_10" data-name="Group 10" clip-path="url(#clip-path-10)">
        <path id="Path_68" data-name="Path 68" d="M355.3,469.412c0,29.068-39.669,52.633-88.6,52.633s-88.6-23.565-88.6-52.633,39.669-52.633,88.6-52.633,88.6,23.565,88.6,52.633" transform="translate(-131.888 -321.195)" fill="#fd4072"/>
        <path id="Path_69" data-name="Path 69" d="M355.3,432.412c0,29.068-39.669,52.633-88.6,52.633s-88.6-23.565-88.6-52.633,39.669-52.633,88.6-52.633,88.6,23.565,88.6,52.633" transform="translate(-131.888 -292.681)" fill="#fc7ea5"/>
        <path id="Path_70" data-name="Path 70" d="M157.331,175.808c-3.989-49.368,4.94-95.4,15.906-98.616,45.359-13.3,8.248,17.2,15.747,59.857,19.755,112.376-15.567,45.18-15.747,56.647-.847,54.089-15.128-8.256-15.906-17.888" transform="translate(-115.794 -57.062)" fill="#fc7ea5"/>
        <path id="Path_71" data-name="Path 71" d="M102.937,30.339c4.144,10.347-8.5,23.741-28.231,29.917S35.613,63.051,31.469,52.7s8.5-23.741,28.231-29.917,39.094-2.795,43.238,7.552" transform="translate(-22.722 -15.182)" fill="#fc7ea5"/>
        <path id="Path_72" data-name="Path 72" d="M238.643.725c-1-1.681-7.621-.338-14.782,3s-12.155,7.4-11.153,9.085,7.621.338,14.782-3,12.155-7.4,11.153-9.085" transform="translate(-157.426 -0.001)" fill="#fc7ea5"/>
        <path id="Path_73" data-name="Path 73" d="M239.315,33.514c.4,2.123-6.083,4.859-14.491,6.111s-15.551.545-15.955-1.579,6.083-4.859,14.491-6.111,15.551-.545,15.955,1.579" transform="translate(-154.664 -24.135)" fill="#fc7ea5"/>
        <path id="Path_74" data-name="Path 74" d="M124.1,65.641c0,5.446,3.659,9.862,8.173,9.862s8.173-4.415,8.173-9.862-3.659-9.862-8.173-9.862-8.173,4.415-8.173,9.862" transform="translate(-91.898 -42.987)" fill="#fff"/>
        <path id="Path_75" data-name="Path 75" d="M134.1,83.856c0,3.357,2.149,6.077,4.8,6.077s4.8-2.721,4.8-6.077-2.149-6.077-4.8-6.077-4.8,2.721-4.8,6.077" transform="translate(-99.304 -59.941)"/>
        <path id="Path_76" data-name="Path 76" d="M135.8,80.531a2.856,2.856,0,1,1-2.854-2.752,2.8,2.8,0,0,1,2.854,2.752" transform="translate(-96.342 -59.941)" fill="#fff"/>
        <path id="Path_77" data-name="Path 77" d="M33.128,128.644c-11.08,9.443-7.367,24.385-15.136,21.082C9.956,146.309.833,141.583.06,130.434s6-20.587,15.136-21.082,27.545,11.1,17.932,19.292" transform="translate(0 -84.262)" fill="#fdced3"/>
        <path id="Path_78" data-name="Path 78" d="M28.384,203.363c-2.335,3.9-3.141,14.2-7.265,14.678C11.26,219.188-2.816,201.517,1.142,197.63c2.335-2.293,10.119.229,15.826,1.147,5.639.906,13.7.781,11.416,4.587" transform="translate(-0.339 -151.583)"/>
        <path id="Path_79" data-name="Path 79" d="M422.389,547.686c0,8.233-21.78,14.907-48.647,14.907S325.1,555.919,325.1,547.686s21.78-14.907,48.647-14.907,48.647,6.674,48.647,14.907" transform="translate(-240.749 -410.592)" fill="#fd4072"/>
        <path id="Path_80" data-name="Path 80" d="M422.281,576.227c0,7.98-22.651,14.448-50.593,14.448S321.1,584.207,321.1,576.227s22.651-14.448,50.593-14.448,50.593,6.469,50.593,14.448" transform="translate(-237.787 -432.941)" fill="#fc7ea5"/>
        <path id="Path_81" data-name="Path 81" d="M423.757,591.361c-6.867,3.784-21.364,11.123-47.815,8.83-26.007-2.255-41.457-7.568-46.8-8.83-6.862-1.62,21.18-11.582,47.306-11.582s53.359,8.246,47.306,11.582" transform="translate(-242.97 -446.813)" fill="#def8f9"/>
        <path id="Path_82" data-name="Path 82" d="M494.167,407.54l5.957.19a3.9,3.9,0,0,0,1.8-.356,3.579,3.579,0,0,0,1.5-.854,3.081,3.081,0,0,0,.966-1.329,2.815,2.815,0,0,0,.4-1.59,3.942,3.942,0,0,0-1.368-2.919,5.354,5.354,0,0,0-3.3-1.209l-5.957-.19a3.9,3.9,0,0,0-1.8.355,3.579,3.579,0,0,0-1.5.854,3.082,3.082,0,0,0-.966,1.329,2.816,2.816,0,0,0-.4,1.591,3.942,3.942,0,0,0,1.368,2.919,5.355,5.355,0,0,0,3.3,1.209" transform="translate(-362.495 -307.71)" fill="#fdced3"/>
        <path id="Path_83" data-name="Path 83" d="M561.257,420.336h1.568a3.906,3.906,0,0,0,1.8-.355,3.58,3.58,0,0,0,1.5-.854,3.078,3.078,0,0,0,.966-1.329,2.817,2.817,0,0,0,.4-1.59q-.084-.549-.167-1.1a4.05,4.05,0,0,0-1.2-1.822l-.945-.645a5.121,5.121,0,0,0-2.357-.564h-1.568a3.9,3.9,0,0,0-1.8.355,3.58,3.58,0,0,0-1.5.854,3.08,3.08,0,0,0-.966,1.329,2.817,2.817,0,0,0-.4,1.59l.167,1.1a4.047,4.047,0,0,0,1.2,1.822l.945.645a5.122,5.122,0,0,0,2.357.564" transform="translate(-412.178 -317.572)" fill="#fdced3"/>
        <path id="Path_84" data-name="Path 84" d="M638.133,437.688a29.622,29.622,0,0,1,3.154.2l-.931-.111a32.047,32.047,0,0,1,7.338,1.792l-.837-.312a35.887,35.887,0,0,1,7.641,3.977l-.709-.484a42.392,42.392,0,0,1,7.865,7.077l-.547-.627a59.606,59.606,0,0,1,5.649,7.723,3.567,3.567,0,0,0,2.093,1.423,4,4,0,0,0,2.7-.312,3.208,3.208,0,0,0,1.61-1.85,2.965,2.965,0,0,0-.353-2.386,56.124,56.124,0,0,0-10.073-12.287,40.38,40.38,0,0,0-14.859-8.49,33.812,33.812,0,0,0-9.741-1.522,3.856,3.856,0,0,0-2.477.907,2.849,2.849,0,0,0,0,4.379,3.927,3.927,0,0,0,2.477.907" transform="translate(-469.973 -332.537)" fill="#fdced3"/>
        <path id="Path_85" data-name="Path 85" d="M608.781,738.506a25.709,25.709,0,0,0,5.646-1.143,24.312,24.312,0,0,0,5.115-2.346,3.424,3.424,0,0,0,1.61-1.85,2.845,2.845,0,0,0-.353-2.386,3.512,3.512,0,0,0-2.093-1.423,3.849,3.849,0,0,0-2.7.312,20.647,20.647,0,0,1-3.707,1.83l.837-.312a21.844,21.844,0,0,1-4.953,1.2l.931-.111-.333.037a2.925,2.925,0,0,0-1.349.267,2.685,2.685,0,0,0-1.127.64,2.849,2.849,0,0,0,0,4.379,3.61,3.61,0,0,0,2.477.907" transform="translate(-448.237 -562.008)" fill="#fdced3"/>
        <path id="Path_86" data-name="Path 86" d="M673.038,716.828l1.357-.518a2.558,2.558,0,0,0,.983-.8,2.256,2.256,0,0,0,.627-1.053,2.084,2.084,0,0,0,.063-1.235,2.122,2.122,0,0,0-.416-1.151l-.548-.627a3.625,3.625,0,0,0-1.545-.8l-.931-.111a3.843,3.843,0,0,0-1.768.423l-1.357.518a2.555,2.555,0,0,0-.983.8,2.256,2.256,0,0,0-.627,1.053,2.086,2.086,0,0,0-.063,1.235,2.127,2.127,0,0,0,.416,1.151l.548.627a3.63,3.63,0,0,0,1.546.8l.931.111a3.844,3.844,0,0,0,1.768-.423" transform="translate(-494.513 -547.585)" fill="#fdced3"/>
        <path id="Path_87" data-name="Path 87" d="M573.811,755.845a3.87,3.87,0,0,0,2.477-.907,2.849,2.849,0,0,0,0-4.378,3.836,3.836,0,0,0-4.953,0,2.849,2.849,0,0,0,0,4.378,3.9,3.9,0,0,0,2.477.907" transform="translate(-422.34 -577.728)" fill="#fdced3"/>
        <path id="Path_88" data-name="Path 88" d="M255.247,647.386c.7.775,1.436,1.53,2.173,2.28.713.725,1.459,1.434,2.126,2.193l-.548-.627c.772.892,1.453,1.843,2.293,2.69a20.332,20.332,0,0,0,3.135,2.218l-.709-.484c1.332.915,2.561,1.939,3.865,2.884,1.479,1.073,3,2.106,4.559,3.085a62.4,62.4,0,0,0,8.456,4.468,61.3,61.3,0,0,0,19.8,4.856,51.352,51.352,0,0,0,11.507-.491,3.493,3.493,0,0,0,2.093-1.423,2.842,2.842,0,0,0,.353-2.385,3.215,3.215,0,0,0-1.61-1.85l-.837-.312a3.975,3.975,0,0,0-1.862,0q-.72.11-1.445.2l.931-.111a49.291,49.291,0,0,1-11.5-.044l.931.111a57.1,57.1,0,0,1-13.105-3.181l.837.312a60.57,60.57,0,0,1-10.383-5.1q-1.434-.877-2.815-1.82l.709.484c-1.217-.831-2.391-1.7-3.55-2.594-.56-.431-1.122-.861-1.7-1.269-.809-.569-1.66-1.074-2.48-1.626l.709.484a7.557,7.557,0,0,1-1.346-1.232l.548.627c-.394-.455-.754-.932-1.14-1.392-.607-.724-1.252-1.407-1.92-2.086-1.052-1.069-2.112-2.133-3.116-3.238a3.752,3.752,0,0,0-2.477-.907,3.817,3.817,0,0,0-2.477.907,2.944,2.944,0,0,0-1.026,2.189l.125.823a3.037,3.037,0,0,0,.9,1.366" transform="translate(-188.262 -494.842)" fill="#fdced3"/>
        <path id="Path_89" data-name="Path 89" d="M259.575,89.734a55.081,55.081,0,0,0,1.569,7.371,3.271,3.271,0,0,0,1.61,1.85,3.99,3.99,0,0,0,2.7.312,3.517,3.517,0,0,0,2.093-1.423,2.931,2.931,0,0,0,.353-2.386,49.2,49.2,0,0,1-1.427-6.438l.125.823c-.006-.037-.011-.074-.017-.11a2.11,2.11,0,0,0-.3-1.193,2.311,2.311,0,0,0-.724-1,3.836,3.836,0,0,0-4.953,0,2.8,2.8,0,0,0-1.026,2.189" transform="translate(-192.216 -66.767)" fill="#fdced3"/>
        <path id="Path_90" data-name="Path 90" d="M259.489,57.635v-.02a2.11,2.11,0,0,0-.3-1.193,2.31,2.31,0,0,0-.724-1,2.686,2.686,0,0,0-1.127-.64,2.925,2.925,0,0,0-1.349-.266l-.931.111a3.624,3.624,0,0,0-1.546.8l-.548.627a2.815,2.815,0,0,0-.478,1.563v.02a2.11,2.11,0,0,0,.3,1.193,2.31,2.31,0,0,0,.724,1,2.685,2.685,0,0,0,1.127.64,2.925,2.925,0,0,0,1.349.267l.931-.111a3.627,3.627,0,0,0,1.546-.8l.548-.627a2.815,2.815,0,0,0,.478-1.563" transform="translate(-186.975 -42.014)" fill="#fdced3"/>
        <path id="Path_91" data-name="Path 91" d="M278.2,677.478a43.76,43.76,0,0,0,14.8,12,56.584,56.584,0,0,0,18.341,5.609,55.134,55.134,0,0,0,6.479.525,23.625,23.625,0,0,0,7-.876,3.7,3.7,0,0,0,2.093-1.423,2.842,2.842,0,0,0,.353-2.386,3.216,3.216,0,0,0-1.61-1.85,3.9,3.9,0,0,0-2.7-.312,17.422,17.422,0,0,1-2.989.614l.931-.111a35.472,35.472,0,0,1-8.132-.2l.931.11a56.2,56.2,0,0,1-10.019-2.129q-1.4-.436-2.769-.946l.837.312a48.075,48.075,0,0,1-10.2-5.224l.709.484A38.7,38.7,0,0,1,285,675.3l.548.627q-.673-.77-1.3-1.573a3.718,3.718,0,0,0-2.093-1.423,4,4,0,0,0-2.7.312,3.209,3.209,0,0,0-1.61,1.85,2.769,2.769,0,0,0,.353,2.386" transform="translate(-205.673 -518.521)" fill="#fdced3"/>
        <path id="Path_92" data-name="Path 92" d="M270.762,663.987c5.383,3.7,10.777,7.447,16.766,10.359a80.471,80.471,0,0,0,19.191,6.214c3.6.732,7.244,1.306,10.893,1.826a2.985,2.985,0,0,0,1.4.055,2.846,2.846,0,0,0,1.3-.367,3.239,3.239,0,0,0,1.61-1.85,2.817,2.817,0,0,0-.353-2.386,3.374,3.374,0,0,0-2.093-1.423,136.1,136.1,0,0,1-18.8-3.752q-2.592-.754-5.11-1.688l.837.312a78.957,78.957,0,0,1-15.444-8.146c-1.369-.9-2.723-1.811-4.071-2.732l.709.484q-.94-.642-1.877-1.286a2.684,2.684,0,0,0-1.127-.64,2.924,2.924,0,0,0-1.349-.267,3.816,3.816,0,0,0-2.476.907,2.943,2.943,0,0,0-1.026,2.189,2.82,2.82,0,0,0,1.026,2.189" transform="translate(-199.75 -507.634)" fill="#fdced3"/>
        <path id="Path_93" data-name="Path 93" d="M446.782,742.434a11.818,11.818,0,0,0,2.128.342,6.769,6.769,0,0,0,1.271,0l.931-.111a2.765,2.765,0,0,0,1.191-.554,1.672,1.672,0,0,0,.628-.555,2.257,2.257,0,0,0,.627-1.053l.125-.823-.125-.823a2.256,2.256,0,0,0-.627-1.053,2.553,2.553,0,0,0-.983-.8c-.341-.147-.7-.28-1.056-.4a2.33,2.33,0,0,0-.271-.071,7.1,7.1,0,0,0-1.45-.155,2.927,2.927,0,0,0-1.35.266,2.685,2.685,0,0,0-1.127.64,2.311,2.311,0,0,0-.724,1,2.111,2.111,0,0,0-.3,1.193l.125.823a3.033,3.033,0,0,0,.9,1.366l.709.484a3.842,3.842,0,0,0,1.768.423,2.729,2.729,0,0,1,.347.017l-.931-.111a2.542,2.542,0,0,1,.544.133l-.837-.312.119.049,1.768-5.769a6.869,6.869,0,0,1-1.386-.016l.931.111a6.8,6.8,0,0,1-1.082-.219,2.991,2.991,0,0,0-1.4-.055,2.853,2.853,0,0,0-1.3.367,2.559,2.559,0,0,0-.983.8,2.259,2.259,0,0,0-.627,1.053l-.125.823a2.813,2.813,0,0,0,.478,1.563l.548.627a3.625,3.625,0,0,0,1.546.8" transform="translate(-328.96 -567.476)" fill="#fdced3"/>
        <path id="Path_94" data-name="Path 94" d="M651.3,440.068a36.008,36.008,0,0,1,7.34,1.882l-.837-.312a35.006,35.006,0,0,1,7.389,3.817l-.709-.484a31.14,31.14,0,0,1,5.84,5.151l-.548-.627.062.072a2.474,2.474,0,0,0,.9.869,2.766,2.766,0,0,0,1.191.554,4,4,0,0,0,2.7-.312,3.208,3.208,0,0,0,1.609-1.85,2.69,2.69,0,0,0-.353-2.386,35.36,35.36,0,0,0-3.745-3.786A38.147,38.147,0,0,0,658.5,435.3a35.831,35.831,0,0,0-5.338-1.2,2.994,2.994,0,0,0-1.4-.055,2.854,2.854,0,0,0-1.3.367,3.24,3.24,0,0,0-1.61,1.85,2.818,2.818,0,0,0,.353,2.386,3.383,3.383,0,0,0,2.093,1.423" transform="translate(-480.425 -334.455)" fill="#fdced3"/>
        <path id="Path_95" data-name="Path 95" d="M648.839,436.882q3.747.515,7.449,1.253a46.4,46.4,0,0,1,6.95,1.736l-.836-.312a13.109,13.109,0,0,1,2.758,1.415l-.709-.484a21.856,21.856,0,0,1,3.926,3.656l-.548-.627a20.676,20.676,0,0,1,3.107,4.56l-.353-.74a13.014,13.014,0,0,1,.959,2.759,3.211,3.211,0,0,0,1.61,1.85,3.992,3.992,0,0,0,2.7.312,3.518,3.518,0,0,0,2.093-1.423l.353-.74a2.767,2.767,0,0,0,0-1.646,12.74,12.74,0,0,0-.875-2.581,21.663,21.663,0,0,0-1.677-3.07,30.89,30.89,0,0,0-4.243-4.956,21.037,21.037,0,0,0-2.941-2.308,16.291,16.291,0,0,0-3.514-1.656,44.894,44.894,0,0,0-6.465-1.63q-3.911-.8-7.881-1.34a2.993,2.993,0,0,0-1.4-.055,2.854,2.854,0,0,0-1.3.367,3.24,3.24,0,0,0-1.61,1.85,2.818,2.818,0,0,0,.353,2.386,3.364,3.364,0,0,0,2.093,1.423" transform="translate(-478.601 -332)" fill="#fdced3"/>
        <path id="Path_96" data-name="Path 96" d="M649.354,430.455l-2.933.236v2.064l2.038-.195a1.357,1.357,0,0,0,.826-.3.949.949,0,0,0,0-1.459,1.21,1.21,0,0,0-.826-.3l-2.038.195a1.356,1.356,0,0,0-.826.3.95.95,0,0,0,0,1.459,1.221,1.221,0,0,0,.826.3l2.933-.236a1.344,1.344,0,0,0,.826-.3.95.95,0,0,0,0-1.46,1.222,1.222,0,0,0-.826-.3" transform="translate(-477.841 -331.733)" fill="#fdced3"/>
        <path id="Path_97" data-name="Path 97" d="M645.082,451.712c.619.016,1.239.034,1.853.107l-.31-.037a8.178,8.178,0,0,1,.933.167l-.815-1.27-.009.025.118-.247-.014.021.183-.209-.019.017.236-.161a.17.17,0,0,1-.049.024l.279-.1a.317.317,0,0,1-.061.012l.31-.037a.752.752,0,0,1-.133,0l.31.037c-.824-.128-1.643-.294-2.463-.442a1.388,1.388,0,0,0-.9.1,1.079,1.079,0,0,0-.537.617.939.939,0,0,0,.118.8,1.152,1.152,0,0,0,.7.474l1.7.306c.354.064.711.143,1.071.173a1.356,1.356,0,0,0,1.41-.854,1.037,1.037,0,0,0-.815-1.27,14.723,14.723,0,0,0-3.1-.311,1.115,1.115,0,0,0-1.168,1.032,1.129,1.129,0,0,0,1.168,1.032" transform="translate(-476.85 -346.477)" fill="#fdced3"/>
        <path id="Path_98" data-name="Path 98" d="M643.531,432.013c1.1-.093,2.175-.33,3.268-.484.051-.007.339-.038.161-.022.138-.012.275-.026.413-.034a7.329,7.329,0,0,1,.767-.009c.118.005.237.011.354.026-.18-.022.025.008.051.012l.181.033c.261.05.518.113.775.176.516.125,1.032.234,1.559.311.263.039.527.072.791.1l.555.066.183.022c-.128-.015,0,0,.056.007a19.866,19.866,0,0,1,3.1.65,15.7,15.7,0,0,0,1.64.409c.329.058.664.094,1,.125.041,0,.231.022.015,0,.119.011.1.052.026-.011-.192-.17-.328-.323-.24-.609a1.036,1.036,0,0,0,.815,1.27,1.215,1.215,0,0,0,1.436-.721,1.473,1.473,0,0,0-.882-1.742,3.369,3.369,0,0,0-1.116-.247l-.163-.015c.051,0,.2.031-.038,0q-.231-.034-.46-.08c-1.1-.223-2.136-.625-3.24-.828-.644-.119-1.3-.191-1.949-.268l-.056-.006-.183-.022c-.142-.017-.284-.035-.426-.055-.3-.041-.606-.087-.907-.145a14.653,14.653,0,0,0-3.585-.516,18.211,18.211,0,0,0-2.139.276c-.315.055-.63.112-.946.163-.158.025-.317.045-.474.071-.136.022-.013,0,.014,0-.118.014-.237.024-.357.034-.606.051-1.2.438-1.167,1.032a1.119,1.119,0,0,0,1.167,1.032" transform="translate(-475.701 -330.92)" fill="#fdced3"/>
        <path id="Path_99" data-name="Path 99" d="M701.011,440.734a18.768,18.768,0,0,1,2.485.651,1.206,1.206,0,0,0,1.377-.6.971.971,0,0,0-.478-1.289,12.874,12.874,0,0,0-1.939-.736l-.621,1.99c.234.042.466.093.694.155q.161.044.319.095l.158.052c.03.01.2.079.055.019s.025.011.053.023c.064.026.127.053.19.081q.151.066.3.139.313.154.608.335l.137.086c.025.016.175.12.05.032s.023.018.047.035l.129.1q.271.207.518.437.116.108.226.221l.109.114c.092.1.026.018-.026-.034a3.81,3.81,0,0,1,.425.555,1.274,1.274,0,0,0,1.6.37.984.984,0,0,0,.419-1.412,8.384,8.384,0,0,0-5.385-3.39,1.217,1.217,0,0,0-1.436.721,1.046,1.046,0,0,0,.815,1.269c.127.037.254.075.38.117l.188.064c.208.069-.079-.035.046.015.26.105.516.213.767.333l.9-1.886a18.832,18.832,0,0,0-2.485-.651,1.216,1.216,0,0,0-1.436.721,1.038,1.038,0,0,0,.815,1.27" transform="translate(-518.507 -338.103)" fill="#fdced3"/>
        <path id="Path_100" data-name="Path 100" d="M255.776,652.49a33.566,33.566,0,0,0,8.58,10.081,2.636,2.636,0,0,0,1.651.6,2.544,2.544,0,0,0,1.651-.6,1.923,1.923,0,0,0,0-2.919,33.5,33.5,0,0,1-4.343-4.128l.365.418a31.14,31.14,0,0,1-3.872-5.536,2.341,2.341,0,0,0-1.4-.948,2.664,2.664,0,0,0-1.8.208,2.138,2.138,0,0,0-1.073,1.234,2.071,2.071,0,0,0,.235,1.59" transform="translate(-189.191 -500.459)" fill="#fdced3"/>
        <path id="Path_101" data-name="Path 101" d="M261.088,646.384a8.29,8.29,0,0,0,1.214,1.243c.344.276.712.528,1.075.784q1.173.826,2.318,1.683,2.312,1.732,4.5,3.589a2.6,2.6,0,0,0,3.3,0,1.927,1.927,0,0,0,0-2.919q-2.121-1.8-4.359-3.484-1.119-.842-2.266-1.654a11.765,11.765,0,0,1-1.984-1.588l.365.418c-.045-.051-.089-.1-.132-.156a2.513,2.513,0,0,0-1.4-.949,2.665,2.665,0,0,0-1.8.208,2.138,2.138,0,0,0-1.073,1.234,1.82,1.82,0,0,0,.236,1.59" transform="translate(-193.116 -495.753)" fill="#fdced3"/>
        <path id="Path_102" data-name="Path 102" d="M435.774,742.794a6.64,6.64,0,0,1,1.33-.3l-.621.074a7.1,7.1,0,0,1,1.479,0l-.621-.074a6.8,6.8,0,0,1,1.529.362l-.558-.208a4.486,4.486,0,0,1,.82.39l-.472-.323.069.057-.365-.418a.351.351,0,0,1,.094.139l-.235-.493.015.07-.083-.549c0,.022,0,.045,0,.067l.084-.549-.019.064.235-.493a.424.424,0,0,1-.08.118l.365-.418a.769.769,0,0,1-.122.1l.472-.323a1.938,1.938,0,0,1-.309.159l.558-.208a36.054,36.054,0,0,1-7.819,1.935l.621-.074a19.908,19.908,0,0,1-4.558.036l.621.074q-.3-.037-.6-.082a2.823,2.823,0,0,0-1.8.208,2.161,2.161,0,0,0-1.073,1.233,1.879,1.879,0,0,0,.236,1.59,2.262,2.262,0,0,0,1.4.949,21.222,21.222,0,0,0,4.939.2,31.7,31.7,0,0,0,4.91-.8c1.433-.349,2.847-.773,4.232-1.249a4.185,4.185,0,0,0,1.57-.815,2.28,2.28,0,0,0,.717-2.354c-.331-1.164-1.66-1.711-2.811-2.1a9.019,9.019,0,0,0-5.383.007,2.511,2.511,0,0,0-1.4.949,1.9,1.9,0,0,0-.235,1.59,2.144,2.144,0,0,0,1.073,1.234,2.55,2.55,0,0,0,1.8.208" transform="translate(-314.476 -569.055)" fill="#fdced3"/>
        <path id="Path_103" data-name="Path 103" d="M642.541,431.948l1.2-.376-1.8-3.773a3.8,3.8,0,0,1-.586.287l.558-.208a3.907,3.907,0,0,1-.752.185l2.637.949-.038-.063.235.493-.022-.068q.042.275.084.549a.375.375,0,0,1,0-.142l-.083.549a.491.491,0,0,1,.048-.14l-.235.493a.586.586,0,0,1,.089-.126l-.365.418a.693.693,0,0,1,.138-.114l-.472.323a1.849,1.849,0,0,1,.28-.131l-.558.208a16.237,16.237,0,0,1,2.878-.632l-.621.074a25.281,25.281,0,0,1,5.85.259l-.621-.074a24.107,24.107,0,0,1,5.555,1.173l-.558-.208a22.8,22.8,0,0,1,4.746,2.483l-.473-.323a22.72,22.72,0,0,1,4.26,3.772l-.365-.418a20.378,20.378,0,0,1,2.991,4.524l-.235-.493q.156.329.3.662a2.3,2.3,0,0,0,1.073,1.233,2.661,2.661,0,0,0,1.8.208,2.345,2.345,0,0,0,1.4-.949,1.817,1.817,0,0,0,.235-1.59,23.023,23.023,0,0,0-7.914-9.7,25.236,25.236,0,0,0-6.684-3.413,21.2,21.2,0,0,0-3.732-.794c-1.452-.2-2.917-.38-4.381-.5a17.391,17.391,0,0,0-4.854.255,11.859,11.859,0,0,0-2.544.714,2.82,2.82,0,0,0-1.482,1.567,2.294,2.294,0,0,0,.249,2,2.176,2.176,0,0,0,1.117.845,2.865,2.865,0,0,0,1.52.1,5.2,5.2,0,0,0,1.9-.68,1.968,1.968,0,0,0,.956-2.578,2.407,2.407,0,0,0-2.755-1.2l-1.2.376a2.48,2.48,0,0,0-1.4.949,1.9,1.9,0,0,0-.235,1.59,2.417,2.417,0,0,0,2.872,1.442" transform="translate(-473.495 -328.681)" fill="#fdced3"/>
        <path id="Path_104" data-name="Path 104" d="M746.213,490.458c.517.539,1.032,1.08,1.523,1.638l-.365-.418a15.847,15.847,0,0,1,2.352,3.535l-.235-.493c.451.945.839,1.914,1.206,2.887a15.628,15.628,0,0,1,.865,3.045l-.084-.549a8.523,8.523,0,0,1,.092,1.5l3.986-1.459a14.5,14.5,0,0,1-2.674-2.369l.365.418q-.2-.235-.4-.477a2.5,2.5,0,0,0-1.4-.949,2.661,2.661,0,0,0-1.8.208,2.139,2.139,0,0,0-1.073,1.234,1.832,1.832,0,0,0,.236,1.59,16.093,16.093,0,0,0,3.436,3.264,3.088,3.088,0,0,0,1.031.531,2.6,2.6,0,0,0,1.52-.1,2.1,2.1,0,0,0,1.435-1.886,15.021,15.021,0,0,0-1.358-5.917,20.585,20.585,0,0,0-2.87-5.374c-.77-.967-1.63-1.877-2.494-2.779a2.517,2.517,0,0,0-1.651-.6,2.544,2.544,0,0,0-1.651.6,1.962,1.962,0,0,0-.684,1.46,2.186,2.186,0,0,0,.684,1.46" transform="translate(-552.1 -375.261)" fill="#fdced3"/>
      </g>
    </g>
    <text id="About-2" data-name="About" transform="translate(996 159)" fill="#fd4072" font-size="20" font-family="Fraunces-Regular, Fraunces"><tspan x="0" y="20">About</tspan></text>
    <text id="Portfolio" transform="translate(1401 164)" fill="#fd4072" font-size="20" font-family="Fraunces-Regular, Fraunces"><tspan x="0" y="20">Portfolio</tspan></text>
    <text id="Contact" transform="translate(1793 175.386)" fill="#fd4072" font-size="20" font-family="Fraunces-Regular, Fraunces"><tspan x="0" y="20">Contact</tspan></text>
  </g>
</svg>
